<?xml version="1.0" standalone="no"?>
<!DOCTYPE svg PUBLIC "-//W3C//DTD SVG 1.1//EN" "http://www.w3.org/Graphics/SVG/1.1/DTD/svg11.dtd" >
<svg xmlns="http://www.w3.org/2000/svg">
<metadata>Generated by IcoMoon</metadata>
<defs>
<font id="tieba-icon" horiz-adv-x="1024">
<font-face units-per-em="1024" ascent="960" descent="-64" />
<missing-glyph horiz-adv-x="1024" />
<glyph unicode="&#x20;" horiz-adv-x="512" d="" />
<glyph unicode="&#xe900;" d="M80 960h864c44.183 0 80-35.817 80-80v-864c0-44.183-35.817-80-80-80h-864c-44.183 0-80 35.817-80 80v864c0 44.183 35.817 80 80 80z" />
<glyph unicode="&#xe901;" d="M595.176 207.896v41.16h127.344v-39.88h80.392v325.432h-106.76v108.056h135.704v77.176h-135.704v120.264h-86.824v-305.496h-94.544v-326.712h80.392zM722.52 326.232h-127.344v131.2h127.344v-131.2zM289.688 411.768v328.648h127.344v-326.072h71.384v400.040h-270.12v-402.616h71.392zM319.912 483.8c0-78.464-42.664-147.92-127.984-208.376 19.72-25.296 35.8-47.376 48.24-66.248 54.448 38.592 93.68 84.048 117.688 136.352 24.224-33.88 50.6-72.032 79.112-114.48l63.024 53.376-117.368 143.104c2.784 17.792 4.176 36.336 4.176 55.632v230.248h-66.888v-229.608z" />
<glyph unicode="&#xe902;" d="M551.832-16v20.096c10.248 14.448 20.008 36.84 20.008 59.504 0 22.672-9.76 45.064-20.008 59.512v20.088l40.168-79.6-40.168-79.6zM512 4.096c-18.568 0-33.616 17.76-33.616 39.672 0 8.032 2.024 15.512 5.504 21.76l28.112 57.584 28.112-57.584c3.48-6.248 5.504-13.728 5.504-21.76 0-21.912-15.048-39.672-33.616-39.672zM472.16 144l0.008-20.888c-10.512-14.48-20.008-36.52-20.008-59.512s9.496-45.024 20.008-59.504v-20.096l-40.168 79.6 40.16 80.4z" />
<glyph unicode="&#xe903;" glyph-name="add" d="M0 488.096h1024v-80.138h-1024v80.138zM471.958 960h80.138v-1024h-80.138v1024z" />
<glyph unicode="&#xe904;" glyph-name="add-seal" d="M70.412 549.162c0 167.601 128.287 340.397 340.397 340.397 0 0 27.632 0 199.852 0s340.397-140.546 340.397-340.397c0 0 0.633-26.758 0-199.852-0.633-172.37-134.197-340.879-340.397-340.397 0 0-30.292-0.482-199.852 0s-340.397 140.545-340.397 340.397v199.852zM116.62 359.782c0-178.885 152.916-304.256 304.687-304.687s178.885 0 178.885 0c184.568-0.431 304.12 150.4 304.687 304.687 0.567 154.934 0 178.885 0 178.885 0 178.885-150.536 304.687-304.687 304.687s-178.885 0-178.885 0c-189.858 0-304.687-154.669-304.687-304.687v-178.885zM254.607 492.245h512.537v-86.029h-512.537v86.029zM467.454 705.092h86.842v-511.725h-86.842v511.725z" />
<glyph unicode="&#xe905;" glyph-name="anchor-task" d="M373.344 189.312c-17.824 0-33.248 7.936-36.864 25.408l-49.952 239.136-32.896-56.8c-6.752-11.456-19.104-19.616-32.384-19.616h-181.92c-20.784 0-37.632 16.848-37.632 37.632s16.848 37.632 37.632 37.632h160.416l71.52 120.864c-0.505 2.312-0.794 4.967-0.794 7.691 0 20.784 16.848 37.632 37.632 37.632s37.632-16.848 37.632-37.632c0-7.076-1.953-13.695-5.349-19.349l30.335-145.974 68.96 382.592c3.302 17.396 18.386 30.372 36.502 30.372 0.195 0 0.39-0.002 0.584-0.004h0.131c18.272 0 33.856-12.672 36.928-30.656l73.6-429.472 23.68 60c5.632 14.4 19.52 23.968 34.976 23.968h333.888c20.784 0 37.632-16.848 37.632-37.632s-16.848-37.632-37.632-37.632h-308.32l-63.68-160.96c-5.646-14.078-19.179-23.838-34.991-23.838-18.55 0-33.962 13.433-37.040 31.102l-60.096 351.137-65.472-359.232c-3.2-17.728-18.528-26.368-36.544-26.368h-0.48z" />
<glyph unicode="&#xe906;" glyph-name="baidu-wallet" d="M891.588 429.865c-0.832 5.905-6.574 28.387-8.507 33.577-58.633 157.683-177.228 184.062-268.392 180.87-35.43-1.24-68.769-12.236-95.36-24.406 130.826-3.822 235.728-111.002 235.728-242.751 0-134.163-108.769-242.932-242.936-242.932s-242.931 108.769-242.931 242.932c0 29.845 5.404 58.411 15.249 84.822l-0.062 1.79c83.427 214.669 417.994 324.875 506.613 329.3 49.926 2.494 38.52 31.956 38.52 31.956-29.342 101.428-120.356 75.852-120.356 75.852-344.472-125.32-568.809 1.034-568.809 1.034s15.255-142.038 168.117-190.486l-2.402-6.887c0 0-14.489-11.116-29.502-23.358l-0.007 0.152c-92.313-70.016-147.967-180.869-147.967-305.665 0-211.752 171.662-383.413 383.416-383.413 211.75 0 383.411 171.662 383.411 383.413 0.001 18.398-1.313 36.492-3.825 54.2zM517.132 262.569l100.177 97.837c8.941 8.92 8.928 23.398 0 32.356l-88.994 89.134c-8.93 8.952-23.421 8.974-32.345 0.062l-104.796-99.313 125.958-120.077z" />
<glyph unicode="&#xe907;" glyph-name="balance" horiz-adv-x="1025" d="M510.297 897.424c-246.986 0-447.206-200.22-447.206-447.206s200.22-447.206 447.206-447.206 447.206 200.22 447.206 447.206-200.22 447.206-447.206 447.206zM510.297 58.911c-216.112 0-391.305 175.193-391.305 391.305s175.193 391.307 391.305 391.307 391.305-175.193 391.305-391.305-175.192-391.307-391.305-391.307zM633.622 673.711l-80.948-124.983c-21.587-33.87-34.79-56.385-39.613-67.542h-1.376c-14.244 27.133-54.425 91.307-120.559 192.526h-76.128l141.573-203.781h-116.081v-45.032h136.059v-62.059h-136.059v-45.605h136.059v-90.346h67.515v90.346h131.24v45.605h-131.24v62.059h131.24v45.032h-112.641l142.949 203.781h-71.989z" />
<glyph unicode="&#xe908;" glyph-name="bank-card" d="M867.424 707.072h-666.042c-28.363 0-51.878-22.955-51.878-51.303v-519.129c0-28.347 23.515-51.135 51.878-51.135h666.042c28.364 0 51.104 22.788 51.104 51.135v519.129c0 28.348-22.74 51.303-51.104 51.303zM866.304 153.435c0-8.697-6.982-15.707-15.683-15.707h-632.436c-8.702 0-15.434 7.010-15.434 15.707v329.381h663.552v-329.381zM866.304 536.064h-663.552v102.911c0 8.696 6.733 15.873 15.434 15.873h632.435c8.701 0 15.683-7.177 15.683-15.873v-102.911zM629.504 242.176h147.456c14.704 0 26.624 11.92 26.624 26.624s-11.92 26.624-26.624 26.624h-147.456c-14.704 0-26.624-11.92-26.624-26.624s11.92-26.624 26.624-26.624z" />
<glyph unicode="&#xe909;" glyph-name="bar" d="M914.499 392.462c-4.88-38.174-15.261-75.591-30.849-111.207-89.518-204.502-328.727-298.058-533.228-208.528-204.503 89.524-298.045 328.726-208.527 533.229 89.527 204.502 328.741 298.051 533.228 208.528 52.934-23.174 99.267-56.461 137.719-98.944l22.668 20.516c-41.374 45.704-91.209 81.517-148.124 106.432-106.546 46.636-224.875 48.999-333.195 6.642-108.316-42.364-193.662-124.37-240.299-230.912-96.283-219.954 4.326-477.216 224.267-573.494 56.67-24.808 115.773-36.542 173.999-36.542 167.784 0 328.024 97.526 399.496 260.806 16.762 38.289 27.923 78.535 33.169 119.602l-30.325 3.872zM262.988 632.374v-400.576h86.587c41.547-1.267 61.688 17.921 60.417 57.567v343.009h-147.003zM345.291 260.818h-42.342v342.535h66.606v-311.609c1.901-20.616-6.185-30.926-24.264-30.926zM456.614 645.693v-402.952c0-44.404 24.422-66.606 73.267-66.606h162.701c23.787-0.634 40.834 3.727 51.142 13.085 10.308 9.356 15.463 24.184 15.463 44.48v29.020h-35.682v-26.642c0-20.93-11.735-30.604-35.205-29.021h-153.665c-26.958-1.582-39.646 11.102-38.058 38.062v137.965h157.944c50.431-2.856 74.217 20.933 71.363 71.361v191.248h-269.271zM570.316 414.007h-73.739v200.763h73.739v-200.763zM650.241 414.007h-39.962v200.763h73.266v-160.324c1.269-28.227-9.833-41.706-33.304-40.439z" />
<glyph unicode="&#xe90a;" glyph-name="bar-active" d="M496.577 642.543h73.739v-200.763h-73.739v200.763zM369.555 631.125h-66.606v-342.534h42.342c18.078 0 26.165 10.309 24.263 30.926v311.608zM683.545 482.218v160.324h-73.266v-200.763h39.962c23.471-1.267 34.572 12.212 33.304 40.439zM511.999 883.021c-240.544 0-435.541-194.999-435.541-435.541 0-240.545 194.998-435.541 435.541-435.541s435.543 194.997 435.543 435.541c0 240.543-194.999 435.541-435.543 435.541zM349.575 259.572h-86.587v400.576h147.002v-343.009c1.272-39.646-18.869-58.834-60.415-57.567zM759.187 261.475c0-20.298-5.155-35.125-15.463-44.48-10.308-9.357-27.355-13.719-51.142-13.085h-162.701c-48.845 0-73.267 22.203-73.267 66.606v402.95h269.272v-191.248c2.853-50.428-20.933-74.217-71.363-71.361h-157.945v-137.964c-1.587-26.96 11.1-39.644 38.058-38.062h153.664c23.47-1.582 35.205 8.091 35.205 29.021v26.642h35.682v-29.020z" />
<glyph unicode="&#xe90b;" glyph-name="bookcase" d="M872.175 843.196h-307.2c-12.595 0-24.098-3.806-34.167-9.796v-673.161h-34.133v673.161c-10.069 6.007-21.606 9.796-34.202 9.796h-307.2c-37.7 0-68.267-30.566-68.267-68.267v-580.506c0-37.7 30.566-68.267 68.267-68.267h307.2c0.341 0 0.666 0.102 1.007 0.102 18.159-0.427 32.802-15.070 33.229-33.195v-35.174h34.133v18.927h0.341v15.394c0 18.432 14.729 33.434 33.075 34.031 0.239 0 0.495-0.102 0.734-0.102h307.2c37.7 0 68.267 30.566 68.267 68.267v580.523c-0.017 37.7-30.583 68.267-68.284 68.267z" />
<glyph unicode="&#xe90c;" glyph-name="bottle" d="M403.625 958.198h226.99v-48.64h-226.99zM601.6 612.598v273.065h-179.2l1.705-278.185c-112.64-40.96-152.745-186.025-152.745-186.025v-483.651h484.69v490.481c0 98.98-154.45 184.315-154.45 184.315zM724.48-29.112h-418.13v440.842s39.25 137.718 167.25 194.038v223.575h78.505v-223.575s170.67-79.165 172.375-194.038c1.705-114.872 0-440.842 0-440.842z" />
<glyph unicode="&#xe90d;" glyph-name="bottom-arrow" d="M534.43 185.344l479.157 479.122c13.907 13.943 13.907 36.48 0 50.422-13.943 13.943-36.515 13.943-50.458 0l-455.765-455.73-448.241 448.205c-13.516 13.551-35.446 13.551-48.961 0-13.586-13.515-13.586-35.446 0-48.995l465.464-465.5c1.819-1.819 4.030-2.71 6.133-4.030 0.82-1.105 1.248-2.461 2.282-3.495 13.907-13.907 36.48-13.907 50.387 0z" />
<glyph unicode="&#xe90e;" glyph-name="card-bean" d="M312.419 621.604c11.041 34.732 18.719 77.872 23.471 114.578 35.755 273.174 386.509 291.746 530.554 80.577 83.648-122.621 86.281-210.803 83.648-328.306-3.437-154.574-65.369-309.514-169.125-406.47-215.409-201.224-510.519-193.327-658.586 19.815-69.61 100.32-69.244 264.253 26.981 348.487 61.42 53.816 136.075 86.427 163.056 171.319zM407.036 545.121c-2.486-10.090-8.774-26.835-18.865-42.702-8.921-13.966-19.23-24.276-31.149-29.979-11.407-5.484-18.353-22.594-15.648-38.168 2.779-15.501 14.258-23.691 25.665-18.28 20.181 9.725 37.291 26.835 51.476 49.136 14.989 23.544 23.983 47.601 28.443 65.149 4.022 16.086-1.682 32.319-12.65 36.413-11.041 4.022-23.252-5.63-27.274-21.57z" />
<glyph unicode="&#xe90f;" glyph-name="card-coupons" d="M334.267 631.989h42.878v-114.343h-42.878zM334.267 403.313h42.878v-114.333h-42.878zM1004.226 642.36v119.152c0 47.165-38.589 85.755-85.755 85.755h-455.571v-42.878h455.572c23.643 0 42.878-19.234 42.878-42.878v-84.683c-102.079-29.751-172.85-117.010-172.85-219.033 0-102.021 70.771-189.279 172.85-219.031v-80.217c0-23.642-19.234-42.878-42.878-42.878h-541.327v58.957h-42.878v-58.957h-230.466c-23.642 0-42.878 19.235-42.878 42.878v79.95c102.608 29.464 173.743 116.823 173.743 219.298s-71.135 189.836-173.743 219.299v84.417c0 23.643 19.235 42.878 42.878 42.878h230.466v-58.066h42.878v100.944h-273.344c-47.165 0-85.755-38.59-85.755-85.755v-119.028c98.371-13.919 173.743-91.181 173.743-184.687s-75.372-170.767-173.743-184.686v-114.562c0-47.165 38.59-85.755 85.755-85.755h814.67c47.165 0 85.755 38.59 85.755 85.755v114.687c-97.934 14.26-172.85 91.338-172.85 184.561s74.914 170.303 172.849 184.564z" />
<glyph unicode="&#xe910;" glyph-name="card-package" d="M108.2 753.219c-25.923-6.248-43.294-28.735-43.373-56.398-0.155-55.209-0.047-103.202-0.039-158.413 0-1.163 0.146-2.33 0.258-4.062 23.999-0.646 37.569-9.047 54.182-26.452 16.76-17.557 24.714-38.665 23.809-62.974-0.715-19.149-7.282-36.213-19.512-50.865-16.941-20.309-31.839-31.274-58.538-31.274h-0.003c-0.094-2.047-0.194-2.784-0.199-3.783-0.004-55.383-0.035-103.545 0.060-158.928 0.004-4.38 0.56-8.829 1.435-13.13 4.823-23.569 23.19-44.898 55.361-44.864 46.275 0.055 89.705 0.095 134.731 0.125v612.673c-45.025-0.009-89.32-0.020-136.030-0.034-5.221 0-7.090-0.401-12.142-1.62zM954.769 363.257c-45.456 3.235-68.826 38.511-69.955 83.722-1.137 45.646 24.365 84.647 69.813 86.887 4.203 0.207 5.366 1.524 5.357 5.68-0.129 54.53 0.013 109.064-0.12 163.597-0.087 34.696-18.461 51.745-53.135 51.745-197.202 0.026-393.508 0.029-589.983-0.002v-612.646c196.475 0.091 391.946 0.019 588.734 0.045 4.238 0 10.759-0.004 14.907 0.728 28.443 5.042 38.225 20.64 38.332 50.297 0.203 54.87 0.566 109.74 0.713 164.614 0.013 4.146-0.933 5.073-4.662 5.334z" />
<glyph unicode="&#xe911;" glyph-name="choose" d="M403.739 134.764c-10.027 0-20.050 4.052-27.699 12.157l-295.477 313.057c-15.3 16.209-15.3 42.485 0 58.693 15.297 16.208 40.098 16.208 55.396 0l267.78-283.712 489.358 518.446c15.298 16.21 40.103 16.21 55.403 0 15.292-16.207 15.292-42.485-0.006-58.691l-517.056-547.793c-7.649-8.105-17.677-12.157-27.699-12.157v0z" />
<glyph unicode="&#xe912;" glyph-name="close" d="M821.925 138.322c-13.103-13.103-34.349-13.103-47.453 0l-572.53 572.53c-13.103 13.103-13.103 34.349 0 47.453v0c13.103 13.103 34.349 13.103 47.453 0l572.53-572.53c13.104-13.103 13.104-34.348 0-47.453v0zM201.943 138.323c-13.103 13.103-13.103 34.349 0 47.453l572.53 572.53c13.103 13.103 34.349 13.103 47.453 0v0c13.103-13.103 13.103-34.349 0-47.453l-572.53-572.53c-13.103-13.104-34.348-13.104-47.453 0v0z" />
<glyph unicode="&#xe913;" glyph-name="confirm" d="M512-32c-265.104 0-480 214.896-480 480s214.896 480 480 480c265.104 0 480-214.896 480-480s-214.896-480-480-480zM792.832 600.832c-12.128 12.128-31.808 12.128-43.936 0l-301.36-301.36-171.504 171.504c-11.872 11.888-31.136 11.888-43.008 0-11.888-11.872-11.888-31.136 0-43.008l186.64-186.64c1.456-2.912 3.024-5.792 5.456-8.224 12.112-12.128 31.792-12.128 43.92 0l323.792 323.792c12.128 12.128 12.128 31.808 0 43.936z" />
<glyph unicode="&#xe914;" glyph-name="crown" d="M768 47.304h-512l-178.090 446c-43.595 3.983-77.91 41.737-77.91 88.261 0 49.183 38.2 89.043 85.333 89.043s85.333-39.861 85.333-89.043c0-18.892-5.721-36.34-15.336-50.747 30.133-49.664 82.794-82.823 143.331-82.823 79.44 0 145.601 56.898 164.638 133.571h6.029v101.394c-25.403 15.42-42.662 43.815-42.662 76.692 0.001 49.183 38.201 89.044 85.335 89.044s85.334-39.861 85.334-89.043c0-32.879-17.269-61.272-42.672-76.692v-101.394h6.038c19.038-76.672 85.209-133.571 164.628-133.571 60.537 0 113.207 33.159 143.341 82.823-9.625 14.408-15.336 31.855-15.336 50.747 0 49.183 38.2 89.043 85.333 89.043s85.334-39.861 85.334-89.043c0-46.523-34.316-84.268-77.91-88.261l-178.090-446.001z" />
<glyph unicode="&#xe915;" glyph-name="decrease" d="M94.831 483.816h832.971v-71.631h-832.971v71.631z" />
<glyph unicode="&#xe916;" glyph-name="diamond" horiz-adv-x="1085" d="M1083.431 680.881c-0.82 1.799-1.756 3.55-2.814 5.217l-150.201 237.26-117.6-242.477h270.615zM340.188 680.881h401.234l-200.617 267.228-200.617-267.228zM499.591 960h-283.256c-11.055 0-22.971-3.762-33.107-9.866l121.256-250.022 195.107 259.888zM899.883 953.219c-8.748 4.261-18.366 6.781-27.411 6.781h-290.452l195.107-259.888 122.756 253.107zM328.785 642.34l211.451-615.947c0.494-0.066 0.988-0.115 1.482-0.153l211.127 616.101-424.060-0.001zM154.317 916.921l-146.127-230.823c-1.134-1.783-2.232-3.533-3.29-5.217h263.895l-114.478 236.040zM0 642.34l1.168-1.931h2.162c2.47-2.838 5.807-6.706 9.846-11.448l464.054-544.391-191.48 557.77h-285.75zM1084.267 642.34h-288.394l-196.258-572.703 476.784 559.323c3.376 3.961 6.002 8.516 7.868 13.379v0 0z" />
<glyph unicode="&#xe917;" glyph-name="direct-seeding" d="M525.451 465.009c-27.249 15.558-50.772 29.225-69.922 40.591l-16.778 9.965v-279.396l16.854 10.16c4.373 2.625 9.194 5.57 14.377 8.743l0.973 0.594c15.997 9.763 35.888 21.923 57.122 33.981 43.417 24.028 101.328 56.914 132.833 76.188l17.223 10.53-17.565 9.916c-30.713 17.29-89.056 50.501-135.106 78.738zM837.193 752.316h-182.522l50.702 90.814c7.458 13.695 3.438 31.337-9.375 41.124-13.667 7.771-30.019 2.531-38.964-12.51l-66.571-119.429h-143.328l-66.73 119.715c-8.949 14.836-25.244 20.025-38.761 12.259-13.004-10.034-16.937-27.34-9.36-41.258l50.644-90.703h-169.451c-71.337 0-131.626-62.941-131.626-137.444v-477.514c0-74.496 60.27-137.441 131.626-137.441h623.724c73.801 0 131.626 60.377 131.626 137.441v477.514c0 74.496-60.27 137.444-131.626 137.444zM715.233 335.090c-4.903-2.566-19.381-11.183-43.364-25.474l-1.53-0.914c-29.013-17.271-68.747-40.944-116.362-68.747-26.463-14.522-50.831-29.135-68.981-40.017-12.523-7.511-25.479-15.28-28.087-16.209l-2.422-0.855-1.825-1.871c-4.85-4.956-11.833-7.476-20.74-7.476-27.647 0-48.496 21.766-48.496 50.629v301.117c0 29.45 21.748 53.423 48.496 53.423 8.454 0 17.219-2.336 25.982-6.911 2.384-1.278 13.977-8.045 30.025-17.411l0.622-0.37c-64.923 34.711-44.476 22.647-24.003 10.621 169.977-94.544 236.302-133.215 249.875-141.753l0.274-0.172c13.81-8.268 22.822-25.49 22.955-43.811 0.001-18.517-8.879-35.766-22.393-43.811z" />
<glyph unicode="&#xe918;" glyph-name="dirft-bottle" d="M347.060 368.191c95.44 0 88.437 61.106 183.875 61.106 95.505 0 95.505-61.106 191.011-61.106l-6.475 17.527-54.654 162.237c-24.626 73.094-94.811 117.797-168.27 113.513l-71.011 210.797c19.039 9.834 28.672 32.22 21.617 53.155l-3.143 9.333c-7.785 23.104-32.825 35.522-55.927 27.743l-90.819-30.596c-23.106-7.785-35.523-32.825-27.744-55.927l3.143-9.334c7.051-20.933 28.265-32.927 49.375-29.237l71.011-210.797c-61.078-41.036-89.908-119.098-65.284-192.192l19.412-57.625 3.882-8.591zM721.95-22.523c-53.237 0-81.077 17.812-105.632 33.518-23.141 14.801-43.127 27.594-85.39 27.594-42.211 0-62.175-12.78-85.3-27.581-24.538-15.716-52.357-33.531-105.578-33.531-53.237 0-81.060 17.812-105.597 33.518-23.123 14.811-43.107 27.594-85.338 27.594-10.387 0-18.791 8.414-18.791 18.791s8.404 18.793 18.791 18.793c53.241 0 81.062-17.812 105.597-33.518 23.124-14.811 43.108-27.594 85.338-27.594 42.228 0 62.194 12.78 85.318 27.594 24.539 15.708 52.339 33.518 105.559 33.518 53.259 0 81.097-17.812 105.652-33.518 23.14-14.811 43.126-27.594 85.373-27.594s62.235 12.794 85.374 27.594c24.554 15.708 52.378 33.518 105.632 33.518 10.387 0 18.793-8.414 18.793-18.793s-8.406-18.791-18.793-18.791c-42.246 0-62.233-12.794-85.373-27.594-24.559-15.709-52.379-33.52-105.635-33.52zM721.95 118.026c-53.237 0-81.077 17.801-105.632 33.513-23.141 14.811-43.127 27.594-85.39 27.594-42.211 0-62.175-12.78-85.3-27.581-24.538-15.708-52.357-33.518-105.578-33.518-53.237 0-81.060 17.801-105.597 33.518-23.123 14.801-43.107 27.581-85.338 27.581-10.387 0-18.791 8.414-18.791 18.791s8.404 18.791 18.791 18.791c53.241 0 81.062-17.801 105.597-33.517 23.124-14.801 43.108-27.581 85.338-27.581 42.228 0 62.194 12.78 85.318 27.594 24.539 15.708 52.339 33.511 105.559 33.511 53.259 0 81.097-17.801 105.652-33.517 23.14-14.801 43.126-27.581 85.373-27.581s62.235 12.78 85.374 27.594c24.554 15.708 52.378 33.511 105.632 33.511 10.387 0 18.793-8.414 18.793-18.791s-8.406-18.791-18.793-18.791c-42.246 0-62.233-12.78-85.373-27.594-24.559-15.714-52.379-33.515-105.635-33.515zM721.95 258.573c-53.237 0-81.077 17.801-105.632 33.513-23.141 14.809-43.127 27.594-85.39 27.594-42.211 0-62.175-12.783-85.3-27.581-24.538-15.709-52.357-33.518-105.578-33.518-53.237 0-81.060 17.801-105.597 33.518-23.123 14.8-43.107 27.581-85.338 27.581-10.387 0-18.791 8.414-18.791 18.791s8.404 18.791 18.791 18.791c53.241 0 81.062-17.801 105.597-33.517 23.124-14.801 43.108-27.581 85.338-27.581 42.228 0 62.194 12.78 85.318 27.594 24.539 15.708 52.339 33.511 105.559 33.511 53.259 0 81.097-17.801 105.652-33.517 23.14-14.801 43.126-27.581 85.373-27.581s62.235 12.78 85.374 27.594c24.554 15.708 52.378 33.511 105.632 33.511 10.387 0 18.793-8.414 18.793-18.791s-8.406-18.791-18.793-18.791c-42.246 0-62.233-12.783-85.373-27.594-24.559-15.714-52.379-33.515-105.635-33.515z" />
<glyph unicode="&#xe919;" glyph-name="emoticon" d="M511.952 2.141c-246.987 0-447.908 200.921-447.908 447.907 0 246.982 200.948 447.903 447.908 447.903 246.957 0 447.902-200.921 447.902-447.903 0.001-246.986-200.92-447.907-447.902-447.907v0 0zM511.952 833.968c-211.704 0-383.92-172.22-383.92-383.92 0-211.703 172.216-383.923 383.92-383.923 211.702 0 383.923 172.22 383.923 383.923-0.003 211.7-172.224 383.92-383.923 383.92v0 0zM513.007 188.758c-89.169 0-171.866 40.315-226.866 110.6-10.876 13.92-8.445 34.010 5.476 44.889 13.883 10.91 34.007 8.479 44.916-5.471 42.775-54.676 107.109-86.029 176.474-86.029 70.096 0 134.849 31.895 177.624 87.533 10.786 14.010 30.84 16.668 44.852 5.885 14.014-10.786 16.672-30.874 5.89-44.855-54.997-71.533-138.24-112.552-228.366-112.552v0 0zM369.034 446.846c-26.518 0-47.987 21.472-47.987 47.994v63.984c0 26.526 21.469 47.991 47.987 47.991 26.522 0 47.991-21.465 47.991-47.991v-63.984c0-26.495-21.499-47.994-47.991-47.994v0 0zM656.972 446.846c-26.492 0-47.987 21.472-47.987 47.994v63.984c0 26.526 21.495 47.991 47.987 47.991s47.99-21.465 47.99-47.991v-63.984c0-26.495-21.499-47.994-47.99-47.994v0 0z" />
<glyph unicode="&#xe91a;" glyph-name="female" d="M351.552 602.816c0-88.613 71.835-160.448 160.448-160.448s160.448 71.835 160.448 160.448c0 88.613-71.835 160.448-160.448 160.448s-160.448-71.835-160.448-160.448zM512 938.688c-271.040 0-490.688-219.712-490.688-490.688s219.648-490.624 490.688-490.624c270.912 0 490.624 219.648 490.624 490.624s-219.712 490.688-490.624 490.688zM686.272 276.48v-61.504h-143.616v-143.616h-61.312v143.616h-143.744v61.504h143.744v106.752c-108.032 14.912-191.104 107.52-191.104 219.584 0 122.496 99.328 221.76 221.76 221.76s221.824-99.264 221.824-221.76c0-112.064-83.2-204.672-191.104-219.584v-106.752h143.552z" />
<glyph unicode="&#xe91b;" glyph-name="friend" d="M472.182 426.825c53.819 32.052 89.836 90.492 89.836 157.279 0 101.258-82.775 183.343-184.885 183.343s-184.882-82.085-184.882-183.343c0-66.787 36.016-125.227 89.834-157.279-143.101-34.466-219.253-150.99-219.253-319.411h628.603c0 168.421-76.152 284.945-219.254 319.411zM675.721 532.745v-47.145h282.872v47.145h-282.872zM746.438 367.737h212.153v47.145h-212.153v-47.145zM793.583 249.874h165.008v47.145h-165.008v-47.145z" />
<glyph unicode="&#xe91c;" glyph-name="game-handle" d="M906.083 94.519c-65.494 0-102.844 39.16-146.092 84.504-15.315 16.049-31.151 32.656-49.649 49.161-48.431 43.226-97.175 49.178-142.629 49.178-8.149 0-16.055-0.188-23.662-0.369-7.315-0.182-14.364-0.348-21.105-0.348h-21.891c-6.741 0-13.789 0.166-21.096 0.348-7.615 0.181-15.521 0.369-23.672 0.369-45.453 0-94.198-5.952-142.627-49.178-18.498-16.505-34.334-33.112-49.651-49.161-43.248-45.344-80.598-84.504-146.092-84.504-25.506 0-46.839 9.379-63.408 27.877-42.414 47.366-52.745 154.588-32.531 337.44 27.861 251.897 143.038 341.646 241.534 341.646 35.492 0 59.825-14.6 85.591-30.067 35.515-21.308 75.771-45.468 162.897-45.468s127.381 24.16 162.896 45.468c25.767 15.467 50.099 30.067 85.591 30.067 98.497 0 213.674-89.749 241.535-341.646 20.214-182.852 9.883-290.074-32.531-337.44-16.567-18.499-37.901-27.877-63.408-27.877zM567.713 309.616c49.359 0 107.459-6.811 164.111-57.366 19.458-17.372 35.751-34.452 51.508-50.967 41.257-43.255 71.070-74.51 122.751-74.51 16.167 0 29.050 5.606 39.382 17.144 34.87 38.939 43.106 144.037 24.49 312.375-25.514 230.73-124.932 312.935-209.468 312.935-26.562 0-45.287-11.237-68.991-25.467-37.176-22.302-83.44-50.067-179.496-50.067s-142.32 27.766-179.497 50.067c-23.703 14.229-42.429 25.467-68.991 25.467-84.535 0-183.954-82.204-209.468-312.935-18.616-168.338-10.379-273.436 24.491-312.375 10.332-11.537 23.215-17.144 39.382-17.144 51.682 0 81.496 31.255 122.751 74.51 15.757 16.515 32.050 33.595 51.509 50.967 66.305 59.179 134.603 58.272 188.553 56.988 7.040-0.172 13.827-0.338 20.324-0.338h21.891c6.497 0 13.285 0.166 20.325 0.338 7.859 0.19 16.026 0.378 24.443 0.378zM811.705 594.674c0-26.727-21.663-48.382-48.382-48.382-26.721 0-48.383 21.655-48.383 48.382 0 26.728 21.662 48.383 48.383 48.383 26.719 0.001 48.382-21.655 48.382-48.383zM811.705 401.145c0-26.727-21.663-48.383-48.382-48.383-26.721 0-48.383 21.656-48.383 48.383s21.662 48.383 48.383 48.383c26.719 0 48.382-21.656 48.382-48.383zM860.080 449.528c-26.72 0-48.383 21.655-48.383 48.382s21.663 48.382 48.383 48.382c26.718 0 48.383-21.656 48.383-48.382 0-26.727-21.665-48.382-48.383-48.382zM666.549 449.528c-26.719 0-48.382 21.655-48.382 48.382s21.663 48.382 48.382 48.382c26.721 0 48.384-21.656 48.384-48.382 0-26.727-21.663-48.382-48.384-48.382zM387.020 530.165h-80.646v80.637c0 17.813-14.442 32.255-32.255 32.255s-32.255-14.442-32.255-32.255v-80.637h-80.63c-17.813 0-32.254-14.442-32.254-32.255s14.442-32.255 32.254-32.255h80.63v-80.637c0-17.813 14.442-32.257 32.255-32.257s32.255 14.443 32.255 32.257v80.637h80.646c17.813 0 32.254 14.442 32.254 32.255s-14.441 32.255-32.254 32.255z" />
<glyph unicode="&#xe91d;" glyph-name="gift" d="M497.132 653.455v-177.971h-369.213v142.868c0 22.487 17.981 40.468 40.509 40.468h168.264c-45.179 9.462-79.094 28.795-80.323 64.471-1.27 42.066 46.162 110.019 115.466 94.495 71.516-16.097 121.487-71.434 159.744-118.825 38.625 48.374 93.348 110.633 168.018 120.463 62.382 7.864 113.951-54.395 107.315-95.478-5.693-36.004-40.182-55.624-84.214-65.085h166.134c22.528 0 40.509-18.022 40.509-40.468v-142.828h-369.254l-0.778 179.855zM379.453 780.513c-34.529 13.64-54.764-0.983-69.304-24.986-7.905-13.558-16.425-31.621-3.809-44.851 33.219-34.161 124.314-31.621 185.426-25.272-28.795 35.963-64.225 76.145-112.312 95.109zM756.9 710.922c23.716 30.351-22.774 93.594-72.745 70.205-47.8-22.446-82.289-59.105-111.985-95.15 25.6-2.253 51.528-2.826 77.21-1.597 31.293 1.311 89.211 3.482 107.52 26.542zM499.671 48.189h-300.933c-20.234 0-36.7 16.384-36.7 36.946v361.554h337.674v-398.5zM895.181 85.176c0-20.562-16.425-36.946-36.7-36.946h-300.892v398.5h337.592v-361.554z" />
<glyph unicode="&#xe91e;" glyph-name="hash" d="M872.346 666.624h-170.906l13.107 198.144c0.922 13.722-1.946 25.293-14.234 28.774-12.288 3.584-29.491-2.253-30.515-15.974l-12.186-210.842h-264.397l11.264 206.234c0.922 13.722-4.608 20.378-16.896 23.859-12.288 3.584-26.829-5.53-27.853-19.251l-12.186-210.842h-154.931c-12.186 0-22.118-11.469-22.118-25.6s9.933-25.6 22.118-25.6h151.245l-23.552-333.107h-171.827c-12.186 0-22.118-11.469-22.118-25.6s9.933-25.6 22.118-25.6h168.243l-11.162-202.342c-0.922-13.722 4.096-23.962 16.384-27.546 1.946-0.512 3.891-0.819 5.632-0.819 9.83 0 21.811 8.192 22.63 19.763l13.926 210.944h262.656l-11.469-206.131c-0.922-13.722 3.379-19.866 15.667-23.347 1.946-0.512 3.891-0.819 5.632-0.819 9.83 0 22.733 7.782 23.552 19.354l12.083 210.842h163.021c12.186 0 22.118 11.469 22.118 25.6s-9.933 25.6-22.118 25.6h-159.232l22.016 333.107h174.285c12.186 0 22.118 11.469 22.118 25.6s-9.933 25.6-22.118 25.6zM630.477 282.317h-262.963l22.016 333.107h264.499l-23.552-333.107z" />
<glyph unicode="&#xe91f;" glyph-name="history" d="M512 928c-265.152 0-480-214.848-480-480s214.848-480 480-480 480 214.848 480 480-214.848 480-480 480zM674.432 285.568c-11.712-11.712-27.072-17.536-42.432-17.536s-30.72 5.888-42.432 17.536l-119.936 119.936c-10.88 10.752-17.6 25.728-17.6 42.304v240.192c0 33.216 26.816 60.032 60.032 60.032s60.032-26.816 60.032-60.032v-215.168l102.464-102.4c23.296-23.424 23.296-61.44-0.128-84.864z" />
<glyph unicode="&#xe920;" glyph-name="home" d="M803.873-63.126h-119.037c-50.012 0-95.57 46.075-95.57 96.678v207.386l-4.639 4.708h-144.212l-4.627-4.708v-207.387c0-48.791-47.343-96.678-95.57-96.678h-119.026c-50.025 0-95.58 46.075-95.58 96.678v363.845l-4.628 4.707h-44.606c-34.602 0-61.397 14.642-71.694 39.129-8.52 20.299-3.247 43.699 13.771 61.069 31.389 32 88.509 91.677 152.214 158.233 79.931 83.507 170.522 178.148 233.526 242.442 69.363 70.788 150.040 70.822 219.403-0.011 63.955-65.244 154.41-160.892 234.228-245.282 63.185-66.817 117.77-124.514 148.457-155.857 16.996-17.312 22.223-40.758 13.647-61.182-10.115-24.124-36.776-38.541-71.264-38.541h-44.581l-4.641-4.707v-363.845c0-48.79-47.342-96.676-95.57-96.676zM420.998 292.005h183.047l31.571-32.056v-226.397c0-25.391 24.373-50.33 49.221-50.33h119.036c20.594 0 49.223 25.346 49.223 50.33v382.854l31.569 32.045h64.001c16.769 0 26.411 5.092 28.537 10.139 1.833 4.356-2.602 9.358-4.005 10.795-31.005 31.638-85.702 89.481-149.045 156.445-79.684 84.254-169.978 179.744-233.639 244.694-51.325 52.368-101.916 52.334-153.208 0.011-62.823-64.102-153.312-158.641-233.152-242.046-63.875-66.727-121.131-126.55-152.598-158.641-2.252-2.297-5.782-6.744-4.141-10.659 2.172-5.171 12.164-10.739 28.968-10.739h64l31.581-32.045v-382.855c0-24.441 25.313-50.33 49.232-50.33h119.026c22.54 0 49.222 27.293 49.222 50.33v226.397l31.556 32.057z" />
<glyph unicode="&#xe921;" glyph-name="home-active" horiz-adv-x="1046" d="M995.26 516.466l-388.378 403.88c-24.134 25.075-56.389 38.874-90.965 38.874-34.573 0-66.835-13.799-90.969-38.874l-388.375-403.88c-40.077-41.688-34.917-77.72-28.292-92.773 4.722-10.68 20.662-40.035 66.587-40.035h56.921v-310.699c0-70.539 50.706-136.958 122.763-136.958h165.333v328.809c0 35.254-5.346 54.897 30.7 54.897h130.665c36.043 0 30.696-19.642 30.696-54.897v-328.81h165.335c72.055 0 122.763 66.419 122.763 136.958v310.699h56.925c45.922 0 61.863 29.355 66.584 40.035 6.624 15.053 11.784 51.086-28.293 92.774v0z" />
<glyph unicode="&#xe922;" glyph-name="know" d="M520.216 911.311c-255.894 0-463.312-207.418-463.312-463.312s207.418-463.311 463.312-463.311 463.311 207.417 463.311 463.311c-0.001 255.894-207.417 463.312-463.311 463.312zM520.216 17.782c-237.602 0-430.218 192.616-430.218 430.217s192.616 430.218 430.218 430.218c237.601 0 430.217-192.616 430.217-430.218s-192.616-430.217-430.217-430.217zM468.055 144.403h66.252v68.416h-66.252v-68.416zM635.396 686.377c-32.414 28.052-74.136 42.143-125.199 42.143-24.077 0-47.444-3.749-70.13-11.28-22.655-7.528-43.176-19.196-61.502-35.065-18.389-15.837-31.413-33.353-39.137-52.55-7.757-19.197-12.216-45.762-13.38-79.696h55.974c6.852 87.906 48.736 131.858 125.588 131.858 35.581 0 63.797-9.501 84.771-28.375 20.91-18.938 31.381-43.954 31.381-75.108 0-20.587-4.136-37.682-12.474-51.321-8.305-13.638-28.958-36.842-61.921-69.677-32.998-32.835-54.359-60.5-64.119-83.025s-15.19-50.19-16.353-83.026h59.401c0 36.133 4.007 62.017 12.022 77.595s29.829 39.784 65.412 72.619c32.706 29.475 53.908 52.809 63.667 70.066s14.608 37.812 14.608 61.76c0.001 47.282-16.222 84.965-48.606 113.081z" />
<glyph unicode="&#xe923;" glyph-name="know-active" d="M512-64c282.77 0 512 229.23 512 512s-229.23 512-512 512c-282.77 0-512-229.23-512-512s229.23-512 512-512zM455.808 197.12h86.272v-85.952h-86.272v86.016zM460.416 262.592c-0.223 6.645-0.362 14.579-0.384 22.541 0 29.747 4.224 55.283 12.672 76.851 6.144 16.256 16.128 32.576 29.888 49.088 10.112 12.032 28.288 29.568 54.464 52.672 26.24 23.040 43.328 41.408 51.136 55.168s11.776 28.672 11.776 44.928c0 29.312-11.52 55.168-34.496 77.376-21.135 20.64-50.070 33.373-81.98 33.373-0.924 0-1.846-0.011-2.765-0.032-32.119 0.002-59.063-10.046-80.695-30.206-21.568-20.096-35.776-51.584-42.496-94.336l-77.824 9.216c7.040 57.344 27.84 101.248 62.464 131.776 34.56 30.464 80.448 45.632 137.344 45.632 60.352 0 108.48-16.384 144.384-49.088 35.84-32.704 53.824-72.32 53.824-118.72 0-26.88-6.336-51.648-18.944-74.24-12.672-22.656-37.376-50.176-74.048-82.624-24.704-21.824-40.768-37.888-48.384-48.256-7.427-10.153-13.212-22.049-16.661-34.901-3.819-14.187-5.931-35.947-6.443-66.219h-72.832z" />
<glyph unicode="&#xe924;" glyph-name="kuso-emoticon" d="M512-64c-282.752 0-512 229.248-512 512s229.248 512 512 512 512-229.248 512-512-229.248-512-512-512zM512 896c-247.467 0-448-200.533-448-448s200.533-448 448-448 448 200.533 448 448-200.533 448-448 448zM401.365 177.749c22.367-9.063 48.31-14.321 75.482-14.321 25.915 0 50.713 4.783 73.558 13.515 46.288 17.318 107.686 51.75 130.982 96.507 10.112 19.584 16.853 28.8 36.523 18.773 19.712-10.112 22.656-23.552 12.501-43.093-32.908-62.185-86.398-109.787-151.22-134.348-31.779-12.126-66.286-18.776-102.345-18.783-35.672 0-70.829 7.851-105.091 19.925-21.205 7.509-44.032 49.493-32.555 73.344 9.557 19.84 41.557-3.413 62.165-11.52zM584.789 655.445c-29.568-10.453-46.336-14.123-72.789-14.123-30.336 0-52.608 3.84-92.971 14.293-5.12 1.365-17.664 4.565-20.864 5.376-30.165 7.467-52.651 11.008-78.165 11.008-141.483 0-189.568-9.813-191.488-61.525 0-2.475 0-68.437 6.101-89.813 18.688-65.536 81.493-103.893 185.387-103.893 67.413 0 112.427 18.859 150.699 54.528 7.125 6.613 39.125 37.333 41.387 37.333 0.085 0 19.413-29.269 24.149-34.816 32.341-37.547 82.987-57.045 167.765-57.045 95.147 0 153.728 37.547 178.645 100.352 10.752 27.136 13.312 49.92 13.312 82.005 0 61.525-67.456 79.531-191.957 79.531-43.392 0-115.499-21.888-119.211-23.211zM831.957 599.424c0-24.832-1.792-41.088-8.789-58.709-15.019-37.803-49.579-59.947-119.168-59.947-67.413 0-100.139 12.587-119.253 34.816-2.816 3.285-15.573 22.272-17.621 25.259-14.251 20.608-30.293 31.872-55.211 31.787-20.48-0.085-36.821-8.107-53.163-22.827-5.845-5.291-26.496-26.88-31.659-31.701-26.752-24.917-56.405-37.333-107.093-37.333-77.611 0-112.512 22.187-124.416 59.349-4.949 15.488-6.059 58.112-3.328 58.965 38.019 5.286 82.301 8.514 127.258 8.914 19.9 0.003 37.692-2.77 63.249-9.127l20.224-5.205c45.184-11.691 72.021-16.341 109.013-16.341 34.987 0 58.325 5.12 94.080 17.792 3.883 1.365 62.976 19.541 97.92 19.541 83.925 0 128-11.733 128-15.232z" />
<glyph unicode="&#xe925;" glyph-name="ladder" d="M318.451 891.754h127.404v-885.293h-127.404v885.293zM573.224 428.028h127.404v-421.566h-127.404v421.566zM828.029 680.983h127.404v-674.523h-127.404v674.523zM63.648 512.351h127.4v-505.89h-127.4v505.89z" />
<glyph unicode="&#xe926;" glyph-name="left-arrow" d="M249.344 425.57l479.122-479.157c13.943-13.907 36.48-13.907 50.422 0 13.943 13.943 13.943 36.515 0 50.458l-455.73 455.765 448.205 448.241c13.551 13.516 13.551 35.446 0 48.961-13.515 13.586-35.446 13.586-48.995 0l-465.5-465.464c-1.819-1.819-2.71-4.030-4.030-6.133-1.105-0.82-2.461-1.248-3.495-2.282-13.907-13.907-13.907-36.48 0-50.387z" />
<glyph unicode="&#xe927;" glyph-name="level" horiz-adv-x="1033" d="M421.060 66.171h-410.694v828.849h215.916v-663.569h194.777v-165.28zM904.163 894.721l-98.747-828.552h-295.048l-112.003 828.552h204.376c12.927-66.638 24.452-150.338 34.572-251.1 10.106-100.763 15.166-210.153 15.166-328.172 0 114.81 5.015 219.184 15.062 313.11 10.031 93.925 20.287 182.656 30.736 266.162h205.885zM891.015 193.798h125.779v-127.628h-125.779v127.628z" />
<glyph unicode="&#xe928;" glyph-name="lock" d="M823.714-59.814h-623.424c-51.645 0-93.518 42.627-93.518 95.225v444.337c0 52.576 41.873 95.205 93.518 95.205h31.163v95.226c0 157.77 125.962 285.635 281.367 285.635 144.825 0 263.946-111.098 279.536-253.907h-63.177c-15.207 107.643-106.155 190.43-216.358 190.43-120.877 0-218.841-99.457-218.841-222.159v-95.226h529.734c51.635 0 93.512-42.629 93.512-95.205v-444.338c0-52.597-41.877-95.224-93.512-95.224v0zM854.871 448c0 35.070-27.892 63.478-62.336 63.478h-561.081c-34.429 0-62.331-28.408-62.331-63.478v-380.86c0-35.051 27.902-63.478 62.331-63.478h561.082c34.443 0 62.336 28.426 62.336 63.478v380.86h-0.001zM511.999 130.616c-68.857 0-124.68 56.851-124.68 126.954 0 70.123 55.822 126.954 124.68 126.954 68.866 0 124.691-56.83 124.691-126.954-0.001-70.105-55.824-126.954-124.691-126.954v0zM511.999 321.046c-34.429 0-62.349-28.425-62.349-63.476s27.92-63.478 62.349-63.478c34.425 0 62.355 28.427 62.355 63.478s-27.931 63.476-62.355 63.476v0z" />
<glyph unicode="&#xe929;" glyph-name="male" d="M435.3 568.7c-108.2 0-196.2-88-196.2-196.2s88-196.2 196.2-196.2c108.2 0 196.2 88 196.2 196.2 0 108.1-88 196.2-196.2 196.2zM512 960c-281.6 0-512-230.4-512-512s230.4-512 512-512 512 230.4 512 512-230.4 512-512 512zM806.5 545.3c-11.9 0-21.6 9.7-21.6 21.6v126.3l-166.5-166.6c15.5-18.3 28-38.8 37.4-61 12.5-29.5 18.8-60.9 18.8-93.2s-6.3-63.7-18.8-93.2c-12.1-28.5-29.3-54.1-51.3-76.1s-47.6-39.2-76.1-51.3c-29.5-12.5-60.9-18.8-93.2-18.8s-63.7 6.3-93.2 18.8c-28.3 12.2-53.9 29.4-75.9 51.4s-39.2 47.6-51.3 76.1c-12.5 29.5-18.8 60.9-18.8 93.2s6.3 63.6 18.8 93.2c12.1 28.5 29.3 54.1 51.3 76.1s47.6 39.2 76.1 51.3c29.5 12.5 60.9 18.8 93.2 18.8s63.6-6.3 93.2-18.8c21.5-9.1 41.4-21.2 59.3-36l162.8 162.8h-118.6c-11.9 0-21.6 9.7-21.6 21.6s9.7 21.6 21.6 21.6h174.5c11.9 0 21.6-9.7 21.6-21.6v-174.5c-0.1-12.1-9.8-21.7-21.7-21.7z" />
<glyph unicode="&#xe92a;" glyph-name="message" d="M512 32c-10.336 0-20.032 4.992-26.016 13.408l-64.896 90.848c-207.744 36.576-357.088 192.768-357.088 375.744 0 211.744 200.96 384 448 384s448-172.256 448-384c0-183.008-149.344-339.168-357.056-375.712l-64.896-90.88c-6.016-8.416-15.712-13.408-26.048-13.408zM512 832c-211.744 0-384-143.552-384-320 0-154.976 132.928-287.328 316.064-314.656 8.576-1.28 16.288-6.016 21.312-13.056l46.624-65.216 46.624 65.248c5.024 7.072 12.704 11.776 21.312 13.056 183.136 27.296 316.064 159.616 316.064 314.624 0 176.448-172.256 320-384 320zM288.032 448c-35.296 0-64 28.704-64 64s28.704 64 64 64 64-28.704 64-64-28.704-64-64-64zM288.064 512c-0.032 0-0.064 0-0.064 0l0.032-32 0.032 32zM736.032 448c-35.296 0-64 28.704-64 64s28.704 64 64 64 64-28.704 64-64-28.704-64-64-64zM736.064 512c-0.032 0-0.064 0-0.064 0l0.032-32 0.032 32zM512.032 448c-35.296 0-64 28.704-64 64s28.704 64 64 64c35.296 0 64-28.704 64-64s-28.704-64-64-64zM512.064 512c0 0-0.064 0-0.064 0l0.032-32 0.032 32z" />
<glyph unicode="&#xe92b;" glyph-name="message-active" d="M190.636 744.925c-87.94-73.272-134.33-158.756-134.33-258.884 0-100.153 46.391-185.635 134.33-256.474 65.927-51.281 141.654-83.027 224.681-97.695l90.373-131.877 92.807 131.877c85.484 14.668 161.188 46.413 224.705 97.695 90.371 70.84 134.331 156.322 134.331 256.474 0 100.129-43.96 185.613-134.331 258.884-85.485 65.925-188.069 102.561-310.189 105.018h-9.779c-122.12-2.457-224.682-39.092-312.599-105.018zM654.69 490.905c0 9.78 4.866 19.557 9.755 26.859 7.323 4.913 17.101 9.779 26.881 9.779 9.755 0 17.078-4.866 24.423-9.779 7.299-7.3 9.756-17.079 9.756-26.859s-2.457-17.077-9.756-24.424c-7.345-7.321-14.668-9.779-24.423-9.779-9.78 0-19.557 2.458-26.881 9.779-4.889 7.347-9.755 14.646-9.755 24.424zM532.571 517.764c7.298-7.3 9.755-17.079 9.755-26.859s-2.457-17.077-9.755-24.424c-7.346-7.321-14.668-9.779-24.423-9.779-9.779 0-19.558 2.458-26.881 9.779-4.889 7.347-9.756 14.646-9.756 24.424 0 9.78 4.866 19.557 9.756 26.859 7.323 4.913 17.103 9.779 26.881 9.779 9.755-0.001 17.078-4.867 24.423-9.779zM305.41 517.764c7.346 4.913 14.668 9.779 24.423 9.779 9.78 0 19.558-4.866 24.424-9.779 7.346-7.3 12.212-17.079 12.212-26.859s-4.865-17.077-12.212-24.424c-4.865-7.321-14.645-9.779-24.424-9.779-9.755 0-17.077 2.458-24.423 9.779-7.323 7.347-9.756 14.646-9.756 24.424 0 9.78 2.433 19.557 9.756 26.859z" />
<glyph unicode="&#xe92c;" glyph-name="mine" d="M960.054-64l-0.939 7.791c-26.040 215.325-226.608 390.529-447.115 390.529s-421.075-175.185-447.096-390.529l-0.939-7.791h-58.877l1.051 9.819c20.37 189.867 153.256 360.997 330.676 425.787l5.407 1.99-4.844 3.117c-90.7 58.332-144.845 155.509-144.845 259.99 0 172.219 149.295 323.297 319.467 323.297 170.191 0 319.467-151.079 319.467-323.335 0-104.461-54.146-201.638-144.845-259.99l-4.844-3.117 5.407-1.99c177.419-64.81 310.305-235.921 330.676-425.787l1.051-9.782h-58.858zM512 900.353c-131.516 0-260.59-130.614-260.59-263.669 0-138.913 137.58-242.717 260.59-242.717s260.59 103.786 260.59 242.717c0 133.055-129.075 263.669-260.59 263.669z" />
<glyph unicode="&#xe92d;" glyph-name="mine-active" d="M632.855 394.007c101.772 47.081 172.591 149.318 172.591 267.869 0 163.119-133.679 295.843-298.007 295.843-164.236 0-297.984-132.724-297.984-295.796 0-118.598 70.842-220.835 172.591-267.916-194.025-56.343-337.734-239.337-343.575-458.007h938.007c-5.865 218.671-149.551 401.664-343.622 458.007z" />
<glyph unicode="&#xe92e;" glyph-name="move" d="M385.543 900.037v-923.169c0-13.987-11.312-25.421-25.421-25.421-13.987 0-25.421 11.312-25.421 25.421v879.504l-277.316-277.316c-9.974-9.974-26.029-9.974-36.002 0s-9.974 26.15 0 36.002l320.616 320.859c7.298 7.298 18.123 9.487 27.61 5.595s15.69-13.258 15.69-23.475l0.243-18.001zM1002.692 279.604l-320.859-320.859c-4.865-4.865-11.312-7.419-18.001-7.419-3.284 0-6.568 0.608-9.73 1.824-9.487 3.892-15.69 13.258-15.69 23.475v941.292c0 13.987 11.312 25.421 25.421 25.421 13.987 0 25.421-11.312 25.421-25.421v-879.626l277.559 277.316c9.974 9.974 26.029 9.974 36.002 0 9.73-9.852 9.73-26.029-0.122-36.002z" />
<glyph unicode="&#xe92f;" glyph-name="msg-text" d="M512.501 1.602c-119.32 0-231.5 46.465-315.87 130.838-84.372 84.372-130.839 196.55-130.839 315.871s46.467 231.5 130.838 315.871c84.373 84.373 196.55 130.838 315.871 130.838s231.5-46.465 315.872-130.838c84.372-84.372 130.837-196.551 130.837-315.87 0-119.323-46.465-231.5-130.837-315.872-84.373-84.373-196.551-130.838-315.873-130.838zM512.501 854.038c-223.718 0-405.726-182.009-405.726-405.727s182.008-405.726 405.725-405.726c223.719 0 405.728 182.008 405.728 405.726s-182.007 405.727-405.727 405.727zM510.15 184.046c-18.107 0-32.745 14.679-32.745 32.786v290.976c0 18.109 14.638 32.786 32.746 32.786 18.107 0 32.746-14.678 32.746-32.786v-290.976c0-18.107-14.639-32.786-32.746-32.786zM466.277 663.541c0-24.897 20.183-45.080 45.080-45.080s45.081 20.183 45.081 45.080c0 24.897-20.183 45.081-45.081 45.081s-45.081-20.183-45.081-45.081z" />
<glyph unicode="&#xe930;" glyph-name="music-play" d="M96.050 955.932l831.891-478.337c20.167-11.596 20.218-40.674 0.092-52.342l-830.196-481.269c-20.125-11.667-45.335 2.827-45.375 26.091l-1.695 959.606c-0.041 23.264 25.116 37.847 45.283 26.251zM869.878 461.791l-758.279 436.011c-8.067 4.639-18.13-1.195-18.114-10.5l1.543-874.696c0.016-9.305 10.1-15.103 18.15-10.437l756.737 438.684c8.050 4.667 8.030 16.299-0.038 20.937z" />
<glyph unicode="&#xe931;" glyph-name="new-badge" d="M475.078 502.647c-28.805 0-49.6-20.964-51.645-51.986h101.075c-0.682 31.191-20.454 51.986-49.43 51.986zM791.304 680.716h-558.61c-128.378 0-232.67-104.191-232.67-232.716 0-128.554 104.171-232.716 232.67-232.716h558.61c128.378 0 232.671 104.19 232.671 232.716 0 128.554-104.171 232.716-232.671 232.716zM362.413 343.279h-29.657v112.665c0 29.998-15.681 46.361-44.657 46.361-30.169 0-50.111-20.795-50.111-52.327v-106.699h-29.657v183.742h27.954v-29.828h0.682c11.59 20.795 31.532 31.532 59.997 31.532 40.396 0 65.452-25.908 65.452-67.667v-117.778zM555.359 426.969h-131.926v-1.705c0-34.942 21.476-57.611 54.201-57.611 23.010 0 40.907 10.908 46.191 28.124h29.317c-5.113-31.532-36.986-54.201-76.189-54.201-51.645 0-84.201 35.964-84.201 92.894s32.725 94.257 82.837 94.257c49.089 0 79.769-34.601 79.769-90.167v-11.59zM767.565 343.279h-29.998l-41.93 142.834h-0.682l-41.93-142.834h-29.998l-51.475 183.742h29.317l37.328-150.163h0.682l42.1 150.163h28.635l42.1-150.163h0.682l37.328 150.163h29.317l-51.474-183.742z" />
<glyph unicode="&#xe932;" glyph-name="new-friend" d="M971.8 562.301l-83.2-25.4c7-29.2 11-59.8 11-91.2 0-214.2-174.2-388.4-388.4-388.4s-388.4 174.2-388.4 388.4c0 214.2 174.2 388.4 388.4 388.4 36 0 70.8-5.2 103.8-14.4l15.6 85.8c-38.2 10-78.2 15.4-119.4 15.4-262 0-475.2-213.2-475.2-475.2s213.2-475.2 475.2-475.2c262 0 475.2 213.2 475.2 475.2 0 40.2-5.2 79.2-14.6 116.6zM948 741.2c0-74.8-60.6-135.4-135.4-135.4s-135.4 60.6-135.4 135.4c0 74.8 60.6 135.4 135.4 135.4s135.4-60.6 135.4-135.4z" />
<glyph unicode="&#xe933;" glyph-name="notice" horiz-adv-x="2048" d="M1536 960h-1024c-282.782 0-512-229.218-512-512s229.218-512 512-512h1024c282.782 0 512 229.218 512 512s-229.218 512-512 512zM1536 14.769h-1024c-238.868 0-433.231 194.363-433.231 433.231s194.363 433.231 433.231 433.231h1024c238.868 0 433.231-194.363 433.231-433.231s-194.363-433.231-433.231-433.231zM733.578 732.633l-45.529-17.881c39.818-112.010 116.303-206.966 229.534-284.908 14.375 20.519 27.097 36.51 38.164 48.010-108.308 62.779-182.351 147.692-222.169 254.779zM593.881 703.685l-48.601 20.322c-45.135-101.337-113.428-189.361-204.918-263.995 15.596-12.721 28.711-25.836 39.385-39.385 87.355 73.413 158.759 167.778 214.134 283.057zM700.967 358.479c28.121-39.385 53.839-76.8 77.233-112.325-107.087-4.923-202.949-8.743-287.705-11.382 57.856 75.894 112.246 157.538 163.092 244.933l-52.933 23.985c-56.202-108.308-108.308-190.149-156.318-245.524-14.234-14.176-31.206-25.614-50.053-33.452l26.067-52.682c15.628 4.171 34.849 7.847 54.461 10.258 86.89 6.992 196.931 13.648 332.335 20.225 12.918-20.322 25.167-39.897 36.628-58.762l46.789 30.759c-40.606 62.779-90.466 132.49-149.543 209.25l-40.054-25.285zM1188.864 150.449h49.231v32.020h339.102v-32.020h49.231v246.784h-437.563v-246.784zM1238.095 352.926h339.102v-126.779h-339.102v126.779zM1448.566 610.146h212.913v45.529h-212.913v96.65h-50.452v-96.61h-144.030c10.082 22.567 19.692 46.159 28.908 70.774l-51.082 14.769c-23.643-73.489-57.807-137.28-101.368-193.414 17.912-8.432 33.075-18.081 46.584-27.494 19.495 27.254 37.77 57.226 54.784 89.836h166.203v-101.534h-291.722v-45.529h601.285v45.529h-259.111v101.494z" />
<glyph unicode="&#xe934;" glyph-name="photo" d="M932.631 912.693h-811.711c-23.187 0-41.984-18.796-41.984-41.984v-811.678c0-23.186 18.797-41.982 41.984-41.982h811.712c23.187 0 41.984 18.796 41.984 41.982v811.678c0 23.188-18.797 41.984-41.985 41.984zM946.626 73.026c0-15.458-12.53-27.988-27.989-27.988h-783.723c-15.459 0-27.99 12.531-27.99 27.988v783.689c0 15.458 12.532 27.988 27.99 27.988h783.724c15.459 0 27.989-12.531 27.989-27.988l-0.001-783.689zM337.683 733.565c-43.97 0-79.616-35.641-79.616-79.61 0-43.968 35.645-79.615 79.616-79.615 43.973 0 79.619 35.647 79.619 79.615-0.001 43.969-35.645 79.61-79.619 79.61zM329.728 459.561c58.228 0 106.955-111.956 153.947-111.956 46.989 0 227.514 223.912 279.9 223.912 28.214 0 111.281-113.653 181.935-218.541v46.326c-70.654 104.888-153.721 218.541-181.935 218.541-52.386 0-232.911-223.912-279.9-223.912-46.991 0-95.719 111.956-153.947 111.956-34.731 0-142.559-94.608-223.92-170.958v-46.326c81.362 76.349 189.189 170.958 223.92 170.958z" />
<glyph unicode="&#xe935;" glyph-name="post-bar" d="M462.012 797.867h-199.919c-56.644 0-99.959-43.315-99.959-99.959v-416.512c0-10.001 6.656-16.657 16.657-16.657h33.331c9.984 0 16.657 6.656 16.657 16.657v436.497c0 6.673 6.656 13.329 13.329 13.329h173.261c6.673 0 13.329-6.656 13.329-13.329v-436.497c0-10.001 6.673-16.657 16.657-16.657h33.331c9.984 0 16.657 6.656 16.657 16.657v483.157c0 16.657-13.329 33.314-33.331 33.314v0zM482.014 164.779c-13.329 3.328-33.331 13.329-63.317 33.314-63.3 49.988-59.972 99.959-59.972 99.959v349.867c0 10.001-6.656 16.674-16.657 16.674h-33.331c-9.984 0-16.657-6.673-16.657-16.674l-3.328-349.867c0 0 0-66.645-46.643-103.287-26.658-16.657-53.316-26.658-66.645-29.986-6.673 0-13.329-6.673-13.329-13.329v-33.331c0-9.984 10.001-16.657 19.985-16.657 23.33 3.328 59.989 10.001 83.302 26.658 53.316 33.314 63.317 66.645 63.317 66.645s10.001-29.986 66.645-63.317c29.986-19.985 59.972-26.658 79.957-26.658 10.001 0 20.002 6.673 20.002 16.674v33.314c0 3.328-6.673 6.656-13.329 10.001v0zM845.21 464.657h-149.948v166.605h149.948c10.001 0 16.657 6.673 16.657 16.657v33.331c0 9.984-6.656 16.657-16.657 16.657h-149.948v83.302c0 10.001-6.656 16.657-16.657 16.657h-33.314c-10.001 0-16.674-6.656-16.674-16.657v-316.553h-49.971c-10.001 0-16.657-6.656-16.657-16.657v-333.21c0-10.001 6.656-16.657 16.657-16.657h183.262c56.644 0 99.959 46.643 99.959 99.959v249.907c0 10.001-6.656 16.657-16.657 16.657v0zM795.221 198.093c0-19.985-16.657-33.314-33.314-33.314h-123.29c-6.656 0-10.001 3.328-10.001 10.001v213.248c0 6.656 3.345 9.984 10.001 9.984h146.603c6.673 0 10.001-3.328 10.001-9.984v-189.935z" />
<glyph unicode="&#xe936;" glyph-name="record" d="M836.972-3.35h-649.945c-24.927 0-45.135 20.207-45.135 45.135v812.431c0 24.927 20.207 45.135 45.135 45.135h460.378v-230.189h234.702v-627.377c0-24.927-20.208-45.135-45.136-45.135zM557.135 682.702h-302.404v-54.161h302.404v54.161zM769.269 538.27h-514.539v-54.161h514.539v54.161zM769.269 393.839h-514.539v-54.161h514.539v54.161zM769.269 249.407h-514.539v-54.161h514.539v54.161zM678.999 897.021c6.617-2.192 12.711-5.87 17.733-10.891l172.155-172.155c3.854-3.854 6.894-8.353 9.111-13.219h-198.998v196.265z" />
<glyph unicode="&#xe937;" glyph-name="reply-msg" d="M512 833.3c-246.5 0-447.3-167.6-447.3-373.8 0-87 35-166.7 95-230.4 0 0-4.5-142.8-37.7-163.4 0 0 121-15 198.1 54.9 58.3-23.3 122.8-35.9 191.8-35.9 246.5 0 447.3 167.6 447.3 373.8 0.1 207.2-200.7 374.8-447.2 374.8zM512 121.5c-62.8 0-122.8 11.7-178.4 33.2-4.5 1.8-9 2.7-13.4 2.7-9 0-17-3.6-24.2-9-34.1-31.4-79.8-41.6-115.6-48.8 3.6 14.3 6.3 25.5 8.1 44.3 4.5 35.9 6.3 69 6.3 80.7 1.8 10.8-1.8 21.5-9 29.6-55.6 59.2-85.2 130.9-85.2 205.3 0 186.5 184.7 338 411.5 338s411.5-151.5 411.5-338c-0.1-186.5-184.8-338-411.6-338zM296.8 442.4c0-26.7 21.7-48.4 48.4-48.4s48.4 21.7 48.4 48.4-21.7 48.4-48.4 48.4c-26.7 0.1-48.4-21.6-48.4-48.4zM477 442.4c0-26.7 21.7-48.4 48.4-48.4s48.4 21.7 48.4 48.4-21.7 48.4-48.4 48.4c-26.7 0.1-48.4-21.6-48.4-48.4zM657.2 442.4c0-26.7 21.7-48.4 48.4-48.4s48.4 21.7 48.4 48.4-21.7 48.4-48.4 48.4c-26.7 0.1-48.4-21.6-48.4-48.4z" />
<glyph unicode="&#xe938;" glyph-name="report" d="M675.587 669.14c-9.347 0-18.558-1.96-27.051-5.625-3.437 34.654-32.754 61.813-68.299 61.813-12.018 0-23.764-0.764-34.719-7.601-10.886 23.558-34.724 39.952-62.334 39.952-37.451 0-67.974-30.155-68.61-67.457-9.215 4.954-20.164 7.864-31.793 7.864-0.020 0-0.039 0-0.059 0-37.845 0-68.636-30.791-68.636-68.64v-178.248h-8.832c-1.268 0-2.49-0.188-3.651-0.52-1.093 0.327-2.349 0.517-3.65 0.52-7.349 0-13.304-5.956-13.304-13.303v-69.563c0-61.139 23.968-118.778 67.489-162.299s101.16-67.489 162.299-67.489 118.778 23.968 162.299 67.489c43.52 43.52 67.488 101.159 67.488 162.299v232.169c0 37.849-30.791 68.64-68.639 68.64zM717.62 368.33c0-54.033-21.201-104.99-59.697-143.486s-89.453-59.697-143.486-59.697-104.99 21.201-143.486 59.697c-38.496 38.496-59.696 89.453-59.696 143.486v56.26h125.531c39.019 0 42.034-8.954 42.034-21.602 0-9.567-4.095-31.818-42.034-31.818h-31.074c-7.347 0-13.303-5.956-13.303-13.303s5.956-13.303 13.303-13.303h31.074c18.67 0 34.934 4.767 47.031 13.784 14.136 10.537 21.608 25.973 21.608 44.64 0 24.116-12.886 35.503-23.698 40.808-13.288 6.522-30.175 7.4-44.942 7.4h-96.094v178.248c0 23.178 18.856 42.034 42.033 42.034s42.034-18.856 42.034-42.034v-137.916c0-7.347 5.956-13.303 13.303-13.303s13.303 5.956 13.303 13.303v137.916c0 13.727-4.066 26.514-11.033 37.251 0.52 1.422 0.818 2.952 0.818 4.555v17.787c0 23.177 18.856 42.033 42.034 42.033s42.033-18.856 42.033-42.033v-177.929c0-7.347 5.956-13.303 13.303-13.303s13.303 5.956 13.303 13.303v176.485c0.349 0.357 0.686 0.733 1.001 1.136 6.397 8.218 11.265 9.993 27.412 9.993 23.177 0 42.033-18.856 42.033-42.033v-17.138c-0.041-0.57-0.032-1.141 0-1.711v-148.864c0-7.347 5.956-13.303 13.303-13.303s13.303 5.956 13.303 13.303v143.893c7.524 6.26 16.836 9.666 26.71 9.666 23.177 0 42.033-18.856 42.033-42.034v-232.169z" />
<glyph unicode="&#xe939;" glyph-name="reverse" d="M320 754.368v-690.368h-64v691.264l-172.032-172.16-45.312 45.248 248.896 248.96 248.896-248.96-45.248-45.248-171.2 171.264zM448 192h512v64h-512v-64zM512 448h448v64h-448v-64zM640 768v-64h320v64h-320z" />
<glyph unicode="&#xe93a;" glyph-name="right-arrow" d="M774.656 470.43l-479.122 479.157c-13.943 13.907-36.48 13.907-50.422 0-13.943-13.943-13.943-36.515 0-50.458l455.73-455.765-448.205-448.241c-13.551-13.516-13.551-35.446 0-48.961 13.515-13.586 35.446-13.586 48.995 0l465.5 465.464c1.819 1.819 2.71 4.030 4.030 6.133 1.105 0.82 2.461 1.248 3.495 2.282 13.907 13.907 13.907 36.48 0 50.387z" />
<glyph unicode="&#xe93b;" glyph-name="rocket" d="M773.715 390.839c-12.32 21.6-11.675 35.456-86.065 102.601 0.415 242.765-166.54 411.099-176.855 421.27 0 0.33 0 0.49 0 0.49s-0.11-0.105-0.256-0.246l-0.246 0.246c0 0 0-0.165 0.005-0.49-10.28-10.225-176.47-179.315-174.956-422.090-74.090-67.475-73.38-81.33-85.595-102.995-22.319-39.535-16.525-197.644 4.516-233.523 21.034-35.881 55.914-9.851 67.864 0.15 11.955 10.013 64.7 76 77.684 73.039 0 0 15.965 3.031 33.966-13.893 17.784-16.73 50.19-32.43 77.924-34.665 0-0.031 0-0.067-0.005-0.090 0.165 0.019 0.33 0.035 0.5 0.050 0.16-0.010 0.34-0.031 0.5-0.045 0 0.026-0.005 0.059 0 0.090 27.73 2.355 60.055 18.213 77.765 35.018 17.925 17.010 33.91 14.052 33.91 14.052 12.96 3.025 66.015-62.72 78.004-72.68 12.005-9.949 46.99-35.821 67.866 0.155 20.881 35.982 25.961 194.117 3.471 233.556v0 0zM511.515 484.050c-46.3-0.105-83.916 37.34-84.020 83.639-0.105 46.305 37.34 83.926 83.645 84.026 46.3 0.11 83.921-37.335 84.020-83.64 0.105-46.3-37.345-83.914-83.645-84.024v0 0zM573.655 147.83c-21.105-15.895-42.415-21.235-61.83-21.005-19.415-0.311-40.745 4.924-61.925 20.719-18.994 13.53-35.959 11.68-44.914-0.105-8.956-11.784-5.796-83.288 5.22-98.653 11.004-15.36 23.924 10.008 42.885 10.968 18.964 0.945 34.72-37.039 41.905-58.744 3.67-11.1 9.39-21.245 17.156-21.97 7.77 0.759 13.45 10.93 17.065 22.044 7.095 21.741 22.685 59.79 41.64 58.935 18.97-0.874 32-26.18 42.945-10.758 10.935 15.41 13.77 86.918 4.765 98.67-9.006 11.749-25.976 13.518-44.911-0.101v0 0z" />
<glyph unicode="&#xe93c;" glyph-name="rotate" d="M876.805 443.891l-18.393-17.598c-0.231 4.889-3.002 24.239-3.414 29.073-16.451 192.868-176.11 341.010-372.396 341.010-206.308 0-374.172-167.588-374.172-373.583 0-206.010 167.866-373.597 374.172-373.597 109.954 0 214.004 48.586 285.103 132.836 3.163 2.418 5.73 5.321 7.667 8.595 0.257 0.311 2.653 3.814 2.653 3.814s1.198 6.661 1.198 9.817c0 15.572-12.658 28.234-28.251 28.234-9.38 0-18.159-4.979-23.262-13.037-60.921-73.091-150.262-115.015-245.106-115.015-175.804 0-318.882 142.825-318.882 318.351 0 175.513 143.077 318.366 318.882 318.366 174.663 0 318.089-142.874 319.941-316.807l-19.382 12.629c-10.236 10.29-28.164 10.318-38.399 0.087-10.662-10.576-10.662-27.794-0.057-38.396l53.53-45.98c5.103-5.153 13.699-12.357 27.124-12.357s18.245 0 26.879 9.071l62.653 55.761c5.189 5.081 8.096 11.941 8.154 19.185 0.055 7.229-2.738 14.032-7.841 19.184 0 0-15.831 17.458-38.4 0.356z" />
<glyph unicode="&#xe93d;" glyph-name="seal" d="M1024 448c0-282.769-229.231-512-512-512s-512 229.231-512 512 229.231 512 512 512 512-229.231 512-512zM484.608 727.102c-55.801-17.28-122.58-33.48-200.34-48.6v-348.84c0.717-19.803-4.683-36.18-16.2-49.14l29.16-37.8c8.999 8.282 19.798 15.483 32.4 21.6 52.92 20.878 109.62 41.217 170.1 61.020-2.881 15.12-4.32 30.417-4.32 45.9-55.080-19.803-110.7-38.703-166.86-56.7v167.398h163.62v40.5h-163.62v124.2c70.2 14.398 129.060 28.080 176.58 41.040l-20.52 39.421zM526.188 194.662h44.28v447.119h142.020v-270.54c0-26.642-12.601-39.783-37.8-39.42-18.36 0-43.74 1.438-76.14 4.32 2.877-17.28 5.219-33.843 7.020-49.68 32.037-0.722 59.577-0.903 82.62-0.54 45.719 0.358 68.58 24.3 68.58 71.82v326.159h-230.58v-489.24z" />
<glyph unicode="&#xe93e;" glyph-name="search" d="M125.872 494.329c0 189.738 153.797 343.535 343.535 343.535s343.535-153.798 343.535-343.535c0-189.737-153.797-343.535-343.535-343.535s-343.535 153.798-343.535 343.535zM722.8 180.594l182.255-182.205 52.817 52.832-181.525 181.577c60.066 70.407 96.341 161.733 96.341 261.53 0 222.732-180.549 403.281-403.281 403.281s-403.28-180.549-403.28-403.281c0-222.731 180.549-403.289 403.281-403.289 95.991 0.001 184.151 33.55 253.392 89.554z" />
<glyph unicode="&#xe93f;" glyph-name="setting" d="M512 588.8c-76.8 0-140.8-64-140.8-140.8s64-140.8 140.8-140.8c76.8 0 140.8 64 140.8 140.8s-64 140.8-140.8 140.8zM512 358.4c-51.2 0-89.6 38.4-89.6 89.6s38.4 89.6 89.6 89.6 89.6-38.4 89.6-89.6c0-51.2-38.4-89.6-89.6-89.6zM864 512h-70.4c-6.4 38.4-25.6 70.4-44.8 102.4l51.2 51.2c6.4 6.4 6.4 19.2 0 25.6l-57.6 57.6c-6.4 6.4-19.2 6.4-25.6 0l-51.2-51.2c-32 19.2-64 32-96 38.4v70.4c0 12.8-6.4 19.2-19.2 19.2h-76.8c-12.8 0-19.2-6.4-19.2-19.2v-70.4c-38.4-12.8-70.4-25.6-102.4-44.8l-51.2 51.2c-6.4 6.4-19.2 6.4-25.6 0l-51.2-57.6c-6.4-6.4-6.4-19.2 0-25.6l44.8-44.8c-19.2-32-32-70.4-44.8-102.4h-64c-12.8 0-19.2-12.8-19.2-19.2v-76.8c0-12.8 6.4-19.2 19.2-19.2h64c6.4-38.4 25.6-76.8 44.8-115.2l-51.2-51.2c-6.4-6.4-6.4-19.2 0-25.6l57.6-57.6c6.4-6.4 19.2-6.4 25.6 0l51.2 51.2c32-19.2 70.4-38.4 108.8-44.8v-70.4c0-12.8 6.4-19.2 19.2-19.2h76.8c12.8 0 19.2 6.4 19.2 19.2v70.4c38.4 6.4 76.8 25.6 108.8 51.2l44.8-44.8c6.4-6.4 19.2-6.4 25.6 0l57.6 57.6c6.4 6.4 6.4 19.2 0 25.6l-51.2 51.2c19.2 32 32 64 38.4 102.4h70.4c12.8 0 19.2 6.4 19.2 19.2v76.8c-6.4 6.4-12.8 19.2-25.6 19.2zM512 198.4c-134.4 0-249.6 108.8-249.6 249.6 0 134.4 108.8 249.6 249.6 249.6 134.4 0 249.6-108.8 249.6-249.6 0-134.4-115.2-249.6-249.6-249.6z" />
<glyph unicode="&#xe940;" glyph-name="share" d="M863.13-61.765h-715.508c-79.021 0-143.084 64.064-143.084 143.114v715.51c0 79.020 66.439 159.777 145.459 159.777h400.098v-72.73h-400.098c-39.51 0-72.745-33.234-72.745-72.745l-1.188-729.811c0-39.54 32.047-71.556 71.557-71.556l729.826 1.187c39.511 0 72.746 33.235 72.746 72.745v400.098h72.744v-400.098c0.001-79.021-80.787-145.491-159.807-145.491zM986.564 629.298c-20.653-0.031-36.402 16.694-36.371 36.372l-1.098 173.805-553.476-527.918c-14.531-13.831-38.048-13.831-52.579 0-14.5 13.86-14.5 36.281 0 50.142l548.755 523.38-159.838-1.173c-20.652-0.045-36.402 16.694-36.372 36.373s15.72 36.342 36.372 36.357h253.785c20.654 0.046 37.195-15.765 37.195-35.428v-255.538c-0.030-19.678-15.749-36.341-36.373-36.372z" />
<glyph unicode="&#xe941;" glyph-name="shop" d="M946.851 713.713h-869.702c-11.38 0-21.024 7.431-24.346 17.704-0.803 2.482-1.236 5.13-1.236 7.879 0 8.631 4.274 16.263 10.821 20.897l199.982 140.141c4.091 2.898 9.183 4.632 14.681 4.633h466.963c5.436 0 10.477-1.696 14.621-4.587l202.753-140.034c6.709-4.678 11.045-12.358 11.045-21.050 0-14.129-11.454-25.583-25.583-25.583 0 0 0 0 0 0zM158.232 764.878h706.56l-128.753 88.923h-450.917l-126.89-88.923zM855.958 443.262c-32.348 0-64.701 14.154-91.098 39.856-8.098 7.886-15.452 16.689-21.873 26.083-6.421-9.394-13.775-18.197-21.873-26.083-26.397-25.701-58.75-39.856-91.098-39.856-47.663 0-89.874 22.725-115.404 57.441-25.53-34.718-67.742-57.441-115.403-57.441-35.147 0-68.816 12.435-94.802 35.018-7.444 6.481-14.050 13.574-19.861 21.298-6.319-7.724-12.925-14.817-20.204-21.157-26.151-22.722-59.819-35.159-94.968-35.159-44.406 0-85.315 19.391-112.236 53.202-3.47 4.328-5.569 9.886-5.569 15.933 0 0.001 0 0.001 0 0.002v226.897c0 14.129 11.454 25.583 25.583 25.583h869.702c14.129 0 25.583-11.454 25.583-25.583v-228.538c0 0 0 0 0 0 0-6.22-2.22-11.922-5.91-16.356-26.898-32.485-67.21-51.139-110.567-51.139zM742.987 596.814c12.008 0 22.402-8.353 24.984-20.081 8.753-39.748 46.197-82.307 87.987-82.307 25.027 0 48.37 9.461 65.309 26.222v193.064h-818.535v-191.724c17.020-17.61 40.86-27.562 66.64-27.562 22.816 0 44.565 7.981 61.242 22.473 16.229 14.102 26.247 33.138 28.211 53.599 1.259 13.122 12.283 23.139 25.466 23.139s24.206-10.017 25.466-23.139c1.963-20.462 11.982-39.498 28.211-53.6 16.677-14.492 38.426-22.473 61.242-22.473 49.527 0 89.821 37.516 89.821 83.63 0 14.129 11.454 25.583 25.583 25.583s25.583-11.454 25.583-25.583c0-46.113 40.294-83.63 89.822-83.63 41.792 0 79.236 42.557 87.987 82.307 2.582 11.728 12.974 20.081 24.984 20.081zM888.884-8.967h-748.363c-14.129 0-25.583 11.453-25.583 25.583v275.536c0 14.13 11.454 25.583 25.583 25.583s25.583-11.453 25.583-25.583v-249.955h697.198v249.955c0 14.13 11.453 25.583 25.583 25.583s25.583-11.453 25.583-25.583v-275.537c0-14.129-11.454-25.582-25.583-25.582z" />
<glyph unicode="&#xe942;" glyph-name="sign" d="M492.847 39.317c-235.895 0-427.801 183.355-427.801 408.676 0 225.366 191.906 408.693 427.801 408.693 225.922 0 413.508-168.587 427.024-383.77 0.812-13.161-9.683-24.442-23.392-25.233-13.777-0.605-25.602 9.218-26.445 22.361-11.923 190.093-177.611 338.971-377.185 338.971-208.376 0-377.899-161.944-377.899-361.023 0-199.062 169.522-361.004 377.899-361.004 30.344 0 60.524 3.475 89.734 10.242 13.222 3.1 26.932-4.658 30.182-17.506 3.248-12.787-4.972-25.696-18.323-28.8-33.076-7.701-67.286-11.607-101.593-11.607zM531.93 566.083l-8.185-9.559c53.962-53.258 121.57-89.785 202.822-109.478-9.391-12.181-17.575-23.743-24.563-34.776-34.239 11.312-66.242 25.356-95.969 42.176v-23.044h-212.372v25.201c-30.637-17.675-63.84-34.327-99.641-49.952-7.537 11.593-15.172 21.57-22.742 29.964 87.068 32.728 159.028 75.929 216.046 129.465h44.606zM360.882 669.509h39.114c-7.571-14.463-15.27-28.257-23.197-41.293h131.934v-29.11h-150.582c-19.72-28.337-40.611-52.685-62.768-72.997-6.66 8.426-14.36 16.977-23.195 25.652 35.508 31.873 65.041 71.118 88.692 117.749zM291.292 291.511h267.895c26.088 41.696 47.789 81.547 65.043 119.456l34.566-17.394c-20.921-35.008-41.844-69.054-62.737-102.062h112.767v-30.848h-417.533v30.848zM336.807 389.257l29.109 14.337c18.161-28.364 34.73-57.632 49.544-87.769l-30.929-16.496c-14.261 31.271-30.148 61.251-47.723 89.928zM406.819 524.805c-12.735 15.954-25.601 31.176-38.661 45.639l23.651 16.945c13.644-12.43 27.615-26.505 41.844-42.146l-26.834-20.438zM500.971 533.96c-29.11-26.086-62.606-50.402-100.52-72.995h194.244c-34.597 20.56-65.818 44.909-93.725 72.995zM466.403 409.665l31.382 8.271c11.827-31.563 22.126-63.563 30.93-96.025l-33.658-9.56c-8.448 35.938-18.032 68.373-28.655 97.314zM559.187 669.509h37.75c-6.624-14.463-13.612-28.257-20.921-41.293h145.548v-29.11h-163.252c-8.186-12.168-15.788-22.718-22.775-31.719-11.209 6.115-22.123 11.329-32.715 15.642 22.449 24.052 41.195 52.884 56.365 86.481zM632.869 518.739c-13.319 14.493-30.277 30.57-50.907 48.245l21.8 19.956c20.306-16.169 38.076-31.562 53.248-46.056l-24.14-22.145zM661.299 105.36v0c-14.262 13.594-14.262 35.938 0 49.594l234.983 224.498c14.328 13.656 37.688 13.656 51.951 0 14.293-13.626 14.293-35.94 0-49.596l-235.021-224.496c-14.259-13.658-37.653-13.658-51.913 0z" />
<glyph unicode="&#xe943;" glyph-name="star" d="M1009.562 505.897c-72.264-88.023-200.049-233.339-200.049-233.339s20.9-159.549 32.614-268.534c5.089-55.511-34.929-79.514-80.251-57.876-86.241 43.325-217.477 110.449-246.999 125.573-30.044-14.971-162.601-80.988-249.733-124.211-45.844-21.586-86.344 2.417-81.193 57.825 11.868 108.82 32.983 268.216 32.983 268.216s-129.249 145.009-202.353 232.919c-25.836 31.928-9.247 77.312 41.697 85.658 103.885 19.64 264.909 50.944 264.909 50.944s88.074 162.335 143.8 261.755c30.669 60.498 51.886 53.514 55.511 51.732 9.452-3.256 24.371-15.022 43.848-51.784 55.091-99.574 142.172-262.124 142.172-262.124s159.13-31.304 261.806-50.995c50.33-8.397 66.765-53.832 41.236-85.76v0z" />
<glyph unicode="&#xe944;" glyph-name="t-bean" d="M463.515 526.887c-1.68-10.986-7.597-29.546-19.439-47.755-10.458-16.081-23.795-28.465-40.518-36.266-16.005-7.466-22.928-26.493-15.462-42.499s26.493-22.928 42.499-15.462c28.3 13.202 50.46 33.778 67.096 59.358 17.597 27.056 26.11 53.762 29.044 72.952 2.671 17.458-9.317 33.775-26.775 36.446-17.459 2.671-33.776-9.316-36.446-26.775zM365.287 588.822v0c7.986 24.379 13.527 54.71 16.995 80.523 25.826 191.95 279.615 204.945 383.833 56.608 60.546-86.177 62.43-148.144 60.546-230.692-2.477-108.602-47.317-217.49-122.37-285.591-155.854-141.42-369.403-135.875-476.504 13.91-50.397 70.49-50.138 185.671 19.493 244.846 44.486 37.824 98.474 60.757 118.006 120.396zM426.066 568.914v0 0c-17.142-52.337-44.449-80.76-101.443-122.023-5.111-3.694-5.111-3.694-10.026-7.254-11.622-8.44-19.050-14.122-25.9-19.946-39.565-33.624-43.762-110.127-8.884-158.911 83.206-116.367 252.135-121.13 381.501-3.745 60.501 54.897 99.279 146.381 101.407 239.685 2.148 94.135-5.7 130.924-48.937 192.466-78.364 111.537-251.84 92.6-268.115-28.355-4.55-33.878-11.027-65.737-19.602-91.917z" />
<glyph unicode="&#xe945;" glyph-name="top-arrow" d="M986.536 277.411l-442.394 453.436c-9.485 9.556-22.118 13.6-34.537 12.956-12.457 0.644-25.055-3.399-34.575-12.956l-442.394-453.436c-17.823-17.896-17.823-46.884 0-64.776 17.824-17.895 46.741-17.895 64.529 0l412.441 420.582 412.366-420.582c17.825-17.895 46.741-17.895 64.565 0 17.785 17.891 17.785 46.881-0.001 64.776z" />
<glyph unicode="&#xe946;" glyph-name="unknown-user" d="M808.854 584.367c0 163.997-134.543 296.918-300.537 296.918-165.996 0-300.537-132.921-300.537-296.918 0-94.697 45.018-178.828 114.873-233.19-125.262-63.086-213.431-188.694-223.198-334.665h44.951c10.544 136.692 99.246 257.718 223.044 305.831 39.334-18.692 94.297-34.897 140.867-34.897 46.572 0 90.499 10.767 129.836 29.456l30.833 17.87 24.971 16.404c69.881 54.363 114.897 138.494 114.897 233.191zM508.317 335.816c-138.958 0-251.59 111.277-251.59 248.57 0 137.252 112.632 248.551 251.59 248.551s251.614-111.299 251.614-248.551c0-137.291-107.075-248.57-251.614-248.57zM762.57 307.559l-0.221-0.312c-4.908 4.684-11.454 7.634-18.78 7.634-15.117 0-27.348-5.747-27.348-20.863 0-10.432 6.038-19.179 14.604-23.787l-0.177-0.268c82.177-58.732 123.621-147.656 131.79-253.452h54.739c-7.857 117.519-66.614 222.158-154.606 291.049z" />
<glyph unicode="&#xe947;" glyph-name="user-at" d="M537.148 16.091c131.744 3.474 235.024 22.984 323.133 88.646 27.569 20.549 48.056 51.182 69.72 78.817 10.111 12.899 20.825 19.331 34.42 11.794 17.023-9.435 18.701-25.844 9.19-41.88-27.727-46.751-62.643-86.728-109.456-115.785-71.905-44.633-150.727-65.744-234.364-72.13-95.175-7.261-188.928-0.86-280.481 27.681-157.865 49.212-248.819 160.49-281.013 318.037-34.231 167.53 1.264 321.967 111.385 455.451 64.91 78.689 151.336 123.123 250.083 143.129 112.592 22.81 224.238 20.697 330.138-29.15 115.089-54.17 176.464-148.061 191.921-273.154 10.919-88.35 1.172-173.716-40.985-253.219-52.564-99.136-136.492-151.576-247.703-160.183-36.344-2.814-69.014 1.832-85.295 43.727-7.731 19.894-24.954 12.219-40.611 2.43-24.928-15.58-50.062-34.527-77.743-41.312-73.588-18.036-137.92 20.129-166.128 92.903-20.83 53.74-18.323 109.021-6.304 163.641 18.174 82.583 52.011 157.102 123.808 207.865 74.842 52.912 163.34 42.069 225.83-25.44 5.987-6.467 18.794-13.503 25.010-11.17 8.233 3.096 13.835 14.731 19.054 23.588 2.282 3.868-0.42 10.423 1.305 14.93 3.674 9.614 6.872 20.794 13.999 27.159 4.011 3.582 19.889 1.637 22.611-2.707 5.608-8.949 10.131-22.171 7.818-31.908-15.514-65.376-33.453-130.168-49.57-195.411-12.234-49.535-24.412-99.166-33.888-149.274-8.622-45.584 18.471-67.919 63.043-54.815 117.412 34.527 192.535 132.553 198.404 262.624 1.602 35.505-0.154 71.848-6.002 106.867-17.376 104.027-79.145 176.249-176.193 211.134-150.067 53.945-296.706 43.292-432.18-47.089-92.474-61.692-139.153-154.35-165.125-258.72-31.324-125.88-18.062-245.16 59.031-353.265 56.979-79.907 137.94-122.903 230.813-144.485 47.79-11.103 97.14-15.488 122.324-19.331zM507.313 643.232c-33.698-0.271-63.57-10.356-88.084-34.312-70.027-68.436-92.33-155.414-90.345-248.875 1.018-48.046 23.158-88.078 73.368-106.928 51.31-19.264 94.137-4.487 130.956 30.828 17.499 16.788 34.604 36.789 43.932 58.719 19.914 46.818 38.79 94.853 50.578 144.183 20.712 86.676-35.269 156.442-120.406 156.386z" />
<glyph unicode="&#xe948;" glyph-name="user-default" d="M508.033 8.448c-245.481 0-444.391 198.935-444.391 444.416 0 245.427 198.91 444.416 444.391 444.416 245.427 0 444.416-198.989 444.416-444.416 0-245.481-198.989-444.416-444.416-444.416v0zM605.467 292.88l17.765 15.569c0 0 4.478 40.742 12.206 55.525 17.306 33.174 35.534 88.889 35.534 88.889s17.769 12.912 17.769 35.534c0 22.595-17.769 35.588-17.769 35.588s6.702 62.93 6.702 106.655c0 91.846-57.668 142.216-161.339 142.216-103.563 0-179.188-42.803-179.188-142.216 0-43.725 13.889-106.655 13.889-106.655s-17.824-12.993-17.824-35.588c0-22.622 17.824-35.534 17.824-35.534s20.724-64.503 35.534-88.889c8.651-14.24 12.231-55.525 12.231-55.525l17.769-15.569c0 0 8.408-90.164-17.769-106.656-23.653-14.891-124.746-34.557-149.321-48.933 1.489-1.546 109.585-94.748 261.672-94.748 152.093 0 260.43 93.554 260.43 95.29-26.257 14.295-124.993 33.69-148.349 48.391-26.203 16.492-17.765 106.655-17.765 106.655v0z" />
<glyph unicode="&#xe949;" glyph-name="user-group" d="M311.6 436.38c53.149-90.026-35.077-130.807-71.956-153.456-158.516-96.177-227.805-132.194-227.805-178.985v-63.928c0-20.55 14.404-38.363 35.979-38.363h779.376c21.573 0 35.977 17.777 35.977 38.363v63.928c0 46.792-69.289 82.845-227.837 178.986-36.845 22.649-125.075 63.43-71.922 153.456 47.181 74.737 84.026 105.174 83.925 230.148 0.101 118.613-82.192 242.914-203.83 242.914-133.642 0-215.933-124.3-215.833-242.914-0.099-124.976 36.744-155.413 83.926-230.149zM987.52 94.462c17.162 0 28.62 14.142 28.62 30.518v50.856c0 37.224-55.12 65.904-181.248 142.386-29.31 18.017-99.499 50.46-57.215 122.077 37.533 59.454 66.844 83.667 66.764 183.086 0.080 94.358-65.385 193.242-162.15 193.242 0 0-27.291 2.628-38.291 0 0 0 135.077-169.228-30-368.628 0 0-74-84 46-140s232-146 236-166 6-47.538 6-47.538h85.52z" />
<glyph unicode="&#xe94a;" glyph-name="user-group-2" d="M545.281 386.251c18.574 10.394 35.831 23.407 51.294 38.871 44.059 44.059 68.324 102.64 68.324 164.949s-24.265 120.89-68.324 164.95c-44.060 44.059-102.641 68.324-164.95 68.324s-120.89-24.265-164.95-68.324c-44.060-44.059-68.325-102.64-68.325-164.95s24.265-120.89 68.325-164.949c15.463-15.463 32.72-28.478 51.294-38.87-148.781-44.262-262.665-173.242-281.923-334.068-1.68-14.029 8.331-26.763 22.36-28.443 14.032-1.684 26.763 8.331 28.443 22.359 20.855 174.166 169.077 305.504 344.775 305.504s323.92-131.338 344.776-305.504c1.556-12.996 12.599-22.543 25.369-22.543 1.014 0.001 2.040 0.061 3.074 0.185 14.029 1.68 24.038 14.414 22.359 28.443-19.259 160.825-133.143 289.804-281.923 334.065zM249.516 590.071c0 100.415 81.694 182.109 182.109 182.109s182.109-81.694 182.109-182.109-81.694-182.109-182.109-182.109c-100.415 0-182.109 81.694-182.109 182.109zM989.376 52.184c-10.008 83.587-41.966 163.509-92.417 231.13-42.289 56.681-96.594 103.514-158.47 136.967 21.377 18.657 39.618 40.839 53.704 65.554 21.61 37.919 33.033 81.155 33.033 125.034 0 48.045-13.537 94.798-39.15 135.203-24.908 39.295-60.079 70.952-101.709 91.548-12.66 6.265-28.009 1.080-34.274-11.586-6.266-12.663-1.079-28.009 11.585-34.275 33.224-16.436 61.295-41.708 81.183-73.081 20.41-32.199 31.199-69.48 31.199-107.81 0-35.010-9.102-69.486-26.321-99.7-16.718-29.334-40.745-54.229-69.484-71.994-12.019-7.429-15.739-23.194-8.31-35.212 1.2-1.941 2.619-3.664 4.203-5.162 2.588-3.878 6.262-7.1 10.834-9.141 67.485-30.128 126.605-77.484 170.967-136.944 45.107-60.458 73.678-131.905 82.625-206.618 1.556-12.996 12.599-22.543 25.369-22.543 1.014 0 2.040 0.061 3.074 0.185 14.030 1.681 24.040 14.415 22.36 28.444z" />
<glyph unicode="&#xe94b;" glyph-name="user-reply" d="M510.563-15.387c6.568 0 12.625 3.249 16.64 8.865 16.338 22.975 36.505 48.295 73.219 77.768 27.432 22.024 78.046 44.975 96.38 50.615 197.030 61.198 324.346 209.492 324.346 377.861 0 108.541-53.099 211.628-149.526 290.301-97.147 79.253-225.366 122.905-361.037 122.905s-263.89-43.652-361.036-122.906c-96.426-78.673-149.524-181.76-149.524-290.301 0-168.391 127.732-316.803 325.412-378.139 11.256-3.458 45.603-13.97 77.398-59.503 3.968-5.708 10.095-8.982 16.756-8.982 4.479 0 8.749 1.486 12.345 4.363 9.329 7.357 11.28 21.396 4.341 31.307-40.173 57.554-85.427 71.432-100.279 75.98-178.766 55.512-294.247 187.004-294.247 334.997 0 96.822 48.875 188.861 137.689 259.088 89.209 70.597 206.823 109.445 331.167 109.445s241.96-38.848 331.167-109.445c88.792-70.225 137.69-162.266 137.69-259.088 0-147.993-115.503-279.484-294.246-334.997-22.117-6.869-77.722-32.049-109.795-57.786-40.914-32.838-64.121-62.148-81.411-86.47-6.985-9.863-5.151-23.903 4.108-31.353 3.576-2.971 7.893-4.525 12.441-4.525zM464.149 495.173c0-25.634 20.78-46.414 46.414-46.414s46.414 20.78 46.414 46.414c0 25.635-20.78 46.415-46.414 46.415s-46.414-20.78-46.414-46.415zM696.22 495.173c0-25.634 20.78-46.414 46.416-46.414 25.634 0 46.414 20.78 46.414 46.414s-20.78 46.415-46.414 46.415c-25.636 0-46.416-20.78-46.416-46.415zM232.075 495.173c0-25.634 20.78-46.414 46.414-46.414 25.635 0 46.415 20.78 46.415 46.414s-20.78 46.415-46.415 46.415c-25.634 0-46.414-20.78-46.414-46.415z" />
<glyph unicode="&#xe94c;" glyph-name="warn-text" d="M924.747 622.421c-22.612 53.398-54.884 101.276-95.968 142.36s-89.068 73.462-142.36 95.968c-55.309 23.355-113.909 35.245-174.42 35.245s-119.111-11.89-174.42-35.245c-53.398-22.612-101.276-54.884-142.36-95.968s-73.462-89.068-95.968-142.36c-23.355-55.309-35.245-113.909-35.245-174.42s11.89-119.111 35.245-174.42c22.612-53.398 54.884-101.276 95.968-142.36s89.068-73.462 142.36-95.968c55.203-23.355 113.909-35.245 174.42-35.245s119.111 11.89 174.42 35.245c53.398 22.612 101.276 54.884 142.36 95.968s73.462 89.068 95.968 142.36c23.355 55.203 35.245 113.909 35.245 174.42s-11.89 119.111-35.245 174.42zM511.998 46.719c-221.236 0-401.283 180.047-401.283 401.283s180.047 401.283 401.283 401.283 401.283-180.047 401.283-401.283-180.046-401.283-401.283-401.283zM511.998 331.438c12.845 0 23.355 10.51 23.355 23.355v280.367c0 12.845-10.51 23.355-23.355 23.355s-23.355-10.51-23.355-23.355v-280.473c0-12.739 10.51-23.249 23.355-23.249zM480.151 260.311c0-17.589 14.259-31.848 31.848-31.848s31.848 14.259 31.848 31.848v0c0 17.589-14.259 31.848-31.848 31.848s-31.848-14.259-31.848-31.848z" />
<glyph unicode="&#xe94d;" glyph-name="write" d="M146.541 13.308c-46.609 0-84.533 37.916-84.533 84.526v696.69c0 46.609 37.924 84.533 84.533 84.533h463.479c9.968-0.017 18.043-8.1 18.048-18.070-0.026-9.963-8.093-18.033-18.052-18.063h-458.733c-29.299 0-53.142-23.843-53.142-53.149v-687.185c0-29.307 23.835-53.149 53.142-53.149h712.239c29.307 0 53.142 23.843 53.142 53.149v421.22c0.089 9.918 8.142 17.926 18.069 17.942 9.936-0.034 17.987-8.053 18.072-17.972v-425.947c0-46.609-37.924-84.526-84.533-84.526h-721.73zM316.276 202.070c-0.007 0-0.016 0-0.025 0-4.356 0-8.302 1.756-11.168 4.6-2.802 2.86-4.531 6.782-4.531 11.108 0 1.475 0.201 2.903 0.577 4.258l46.221 169.414 450.565 450.617c10.935 10.92 25.98 16.941 42.364 16.941 19.116 0 38.278-8.211 52.577-22.526l42.665-42.703c14.3-14.277 22.503-33.416 22.511-52.517 0.008-16.407-6.021-31.467-16.971-42.41l-450.557-450.512-170.082-45.721c-1.243-0.346-2.671-0.546-4.145-0.549zM338.606 240.159l130.457 35.486-94.595 94.588-35.862-130.073zM398.138 390.975l91.894-91.863 341.459 341.496v4.666l-1.626 1.663-87.197 88.56-344.529-344.522zM824.385 817.207l-0.835-0.828-53.45-53.443 91.148-92.563 54.158 54.165c12.388 12.328 11.462 33.446-2.070 47.061l-42.688 42.696c-6.886 6.871-16.159 10.8-25.461 10.8-0.077 0.001-0.168 0.001-0.26 0.001-7.465 0-14.306-2.67-19.62-7.108l-0.057 0.040-0.866-0.82z" />
<glyph unicode="&#xe94e;" glyph-name="write-2" d="M388.955 222.552l-101.67 100.003-63.951-170.549 165.621 70.546zM715.307 542.358l-104.96 108.199-304.227-300.134 109.083-113.126 300.104 305.061zM801.759 625.030c19.741 21.136-10.593 54.803-10.593 54.803s-17.193 22.714-49.153 46.082c-31.99 23.352-56.604 0-56.604 0l-54.1-54.116 109.885-109.477c0 0 46.327 46.72 60.565 62.708zM170.093 109.646h611.253v-54.006h-611.253v54.006z" />
</font>
</defs>
</svg>
